<svg class="main-svg" xmlns="http://www.w3.org/2000/svg" xmlns:xlink="http://www.w3.org/1999/xlink" width="1500" height="900" style="" viewBox="0 0 500 300"><rect x="0" y="0" width="500" height="300" style="fill: rgb(255, 255, 255); fill-opacity: 1;"/><defs id="defs-caee15"><g class="clips"><clipPath id="clipcaee15xyplot" class="plotclip"><rect width="398" height="170"/></clipPath><clipPath class="axesclip" id="clipcaee15x"><rect x="52" y="0" width="398" height="300"/></clipPath><clipPath class="axesclip" id="clipcaee15y"><rect x="0" y="80" width="500" height="170"/></clipPath><clipPath class="axesclip" id="clipcaee15xy"><rect x="52" y="80" width="398" height="170"/></clipPath></g><g class="gradients"/><g class="patterns"/></defs><g class="bglayer"/><g class="layer-below"><g class="imagelayer"/><g class="shapelayer"/></g><g class="cartesianlayer"><g class="subplot xy"><g class="layer-subplot"><g class="shapelayer"><path data-index="0" fill-rule="evenodd" d="M190.25,189.54000000000002H446.27V88.5H190.25Z" clip-path="url(#clipcaee15xy)" style="opacity: 0.2; stroke: rgb(255, 165, 0); stroke-opacity: 1; fill: rgb(0, 128, 0); fill-opacity: 1; stroke-dasharray: 3px, 3px; stroke-width: 0.5px;"/><path data-index="1" fill-rule="evenodd" d="M54.36,241.5H190.25V189.54000000000002H54.36Z" clip-path="url(#clipcaee15xy)" style="opacity: 0.2; stroke: rgb(255, 165, 0); stroke-opacity: 1; fill: rgb(255, 0, 0); fill-opacity: 1; stroke-dasharray: 3px, 3px; stroke-width: 0.5px;"/><path data-index="2" fill-rule="evenodd" d="M54.36,189.54000000000002H190.25V88.5H54.36Z" clip-path="url(#clipcaee15xy)" style="opacity: 0.2; stroke: rgb(255, 165, 0); stroke-opacity: 1; fill: rgb(255, 165, 0); fill-opacity: 1; stroke-dasharray: 3px, 3px; stroke-width: 0.5px;"/><path data-index="3" fill-rule="evenodd" d="M190.25,241.5H446.27V189.54000000000002H190.25Z" clip-path="url(#clipcaee15xy)" style="opacity: 0.2; stroke: rgb(255, 165, 0); stroke-opacity: 1; fill: rgb(255, 165, 0); fill-opacity: 1; stroke-dasharray: 3px, 3px; stroke-width: 0.5px;"/></g><g class="imagelayer"/></g><g class="gridlayer"><g class="x"><path class="xgrid crisp" transform="translate(79.2,0)" d="M0,80v170" style="stroke: rgb(255, 255, 255); stroke-opacity: 1; stroke-width: 1px;"/><path class="xgrid crisp" transform="translate(148.31,0)" d="M0,80v170" style="stroke: rgb(255, 255, 255); stroke-opacity: 1; stroke-width: 1px;"/><path class="xgrid crisp" transform="translate(158.81,0)" d="M0,80v170" style="stroke: rgb(255, 255, 255); stroke-opacity: 1; stroke-width: 1px;"/><path class="xgrid crisp" transform="translate(170.55,0)" d="M0,80v170" style="stroke: rgb(255, 255, 255); stroke-opacity: 1; stroke-width: 1px;"/><path class="xgrid crisp" transform="translate(183.87,0)" d="M0,80v170" style="stroke: rgb(255, 255, 255); stroke-opacity: 1; stroke-width: 1px;"/><path class="xgrid crisp" transform="translate(199.24,0)" d="M0,80v170" style="stroke: rgb(255, 255, 255); stroke-opacity: 1; stroke-width: 1px;"/><path class="xgrid crisp" transform="translate(217.41,0)" d="M0,80v170" style="stroke: rgb(255, 255, 255); stroke-opacity: 1; stroke-width: 1px;"/><path class="xgrid crisp" transform="translate(239.66,0)" d="M0,80v170" style="stroke: rgb(255, 255, 255); stroke-opacity: 1; stroke-width: 1px;"/><path class="xgrid crisp" transform="translate(268.34000000000003,0)" d="M0,80v170" style="stroke: rgb(255, 255, 255); stroke-opacity: 1; stroke-width: 1px;"/><path class="xgrid crisp" transform="translate(308.77,0)" d="M0,80v170" style="stroke: rgb(255, 255, 255); stroke-opacity: 1; stroke-width: 1px;"/><path class="xgrid crisp" transform="translate(377.88,0)" d="M0,80v170" style="stroke: rgb(255, 255, 255); stroke-opacity: 1; stroke-width: 1px;"/><path class="xgrid crisp" transform="translate(388.38,0)" d="M0,80v170" style="stroke: rgb(255, 255, 255); stroke-opacity: 1; stroke-width: 1px;"/><path class="xgrid crisp" transform="translate(400.12,0)" d="M0,80v170" style="stroke: rgb(255, 255, 255); stroke-opacity: 1; stroke-width: 1px;"/><path class="xgrid crisp" transform="translate(413.44,0)" d="M0,80v170" style="stroke: rgb(255, 255, 255); stroke-opacity: 1; stroke-width: 1px;"/><path class="xgrid crisp" transform="translate(428.81,0)" d="M0,80v170" style="stroke: rgb(255, 255, 255); stroke-opacity: 1; stroke-width: 1px;"/><path class="xgrid crisp" transform="translate(446.98,0)" d="M0,80v170" style="stroke: rgb(255, 255, 255); stroke-opacity: 1; stroke-width: 1px;"/></g><g class="y"><path class="ygrid crisp" transform="translate(0,240.93)" d="M52,0h398" style="stroke: rgb(255, 255, 255); stroke-opacity: 1; stroke-width: 1px;"/><path class="ygrid crisp" transform="translate(0,210.78)" d="M52,0h398" style="stroke: rgb(255, 255, 255); stroke-opacity: 1; stroke-width: 1px;"/><path class="ygrid crisp" transform="translate(0,170.91)" d="M52,0h398" style="stroke: rgb(255, 255, 255); stroke-opacity: 1; stroke-width: 1px;"/><path class="ygrid crisp" transform="translate(0,140.76)" d="M52,0h398" style="stroke: rgb(255, 255, 255); stroke-opacity: 1; stroke-width: 1px;"/><path class="ygrid crisp" transform="translate(0,110.61)" d="M52,0h398" style="stroke: rgb(255, 255, 255); stroke-opacity: 1; stroke-width: 1px;"/></g></g><g class="zerolinelayer"/><path class="xlines-below"/><path class="ylines-below"/><g class="overlines-below"/><g class="xaxislayer-below"/><g class="yaxislayer-below"/><g class="overaxes-below"/><g class="plot" transform="translate(52,80)" clip-path="url(#clipcaee15xyplot)"><g class="scatterlayer mlayer"><g class="trace scatter trace744613" style="stroke-miterlimit: 2; opacity: 1;"><g class="fills"/><g class="errorbars"/><g class="lines"/><g class="points"><path class="point" transform="translate(99.14,110.46)" d="M6,0A6,6 0 1,1 0,-6A6,6 0 0,1 6,0Z" style="opacity: 0.4; stroke-width: 0px; fill: rgb(72, 143, 49); fill-opacity: 1;"/><path class="point" transform="translate(153.37,108.64)" d="M6,0A6,6 0 1,1 0,-6A6,6 0 0,1 6,0Z" style="opacity: 0.4; stroke-width: 0px; fill: rgb(72, 143, 49); fill-opacity: 1;"/><path class="point" transform="translate(217.58,123.94)" d="M6,0A6,6 0 1,1 0,-6A6,6 0 0,1 6,0Z" style="opacity: 0.4; stroke-width: 0px; fill: rgb(72, 143, 49); fill-opacity: 1;"/><path class="point" transform="translate(216.23,119.12)" d="M6,0A6,6 0 1,1 0,-6A6,6 0 0,1 6,0Z" style="opacity: 0.4; stroke-width: 0px; fill: rgb(72, 143, 49); fill-opacity: 1;"/><path class="point" transform="translate(79.65,19.74)" d="M6,0A6,6 0 1,1 0,-6A6,6 0 0,1 6,0Z" style="opacity: 0.4; stroke-width: 0px; fill: rgb(72, 143, 49); fill-opacity: 1;"/><path class="point" transform="translate(125.13,126)" d="M6,0A6,6 0 1,1 0,-6A6,6 0 0,1 6,0Z" style="opacity: 0.4; stroke-width: 0px; fill: rgb(72, 143, 49); fill-opacity: 1;"/><path class="point" transform="translate(356.25,125.75)" d="M6,0A6,6 0 1,1 0,-6A6,6 0 0,1 6,0Z" style="opacity: 0.4; stroke-width: 0px; fill: rgb(72, 143, 49); fill-opacity: 1;"/><path class="point" transform="translate(103.15,69.36)" d="M6,0A6,6 0 1,1 0,-6A6,6 0 0,1 6,0Z" style="opacity: 0.4; stroke-width: 0px; fill: rgb(72, 143, 49); fill-opacity: 1;"/><path class="point" transform="translate(223.03,112.34)" d="M6,0A6,6 0 1,1 0,-6A6,6 0 0,1 6,0Z" style="opacity: 0.4; stroke-width: 0px; fill: rgb(72, 143, 49); fill-opacity: 1;"/><path class="point" transform="translate(89.38,98.2)" d="M6,0A6,6 0 1,1 0,-6A6,6 0 0,1 6,0Z" style="opacity: 0.4; stroke-width: 0px; fill: rgb(72, 143, 49); fill-opacity: 1;"/><path class="point" transform="translate(65,89.42)" d="M6,0A6,6 0 1,1 0,-6A6,6 0 0,1 6,0Z" style="opacity: 0.4; stroke-width: 0px; fill: rgb(72, 143, 49); fill-opacity: 1;"/><path class="point" transform="translate(274.67,22.28)" d="M6,0A6,6 0 1,1 0,-6A6,6 0 0,1 6,0Z" style="opacity: 0.4; stroke-width: 0px; fill: rgb(72, 143, 49); fill-opacity: 1;"/><path class="point" transform="translate(27.4,47.1)" d="M6,0A6,6 0 1,1 0,-6A6,6 0 0,1 6,0Z" style="opacity: 0.4; stroke-width: 0px; fill: rgb(72, 143, 49); fill-opacity: 1;"/></g><g class="text"><g class="textpoint" transform="translate(0,-10)"><text x="99.14" y="110.46" text-anchor="middle" style="font-family: 'Open Sans', verdana, arial, sans-serif; font-size: 6px; fill: rgb(42, 63, 95); fill-opacity: 1; white-space: pre;">Abbott Laboratories</text></g><g class="textpoint" transform="translate(0,-10)"><text x="153.37" y="108.64" text-anchor="middle" style="font-family: 'Open Sans', verdana, arial, sans-serif; font-size: 6px; fill: rgb(42, 63, 95); fill-opacity: 1; white-space: pre;">AbbVie Inc.</text></g><g class="textpoint" transform="translate(0,-10)"><text x="217.58" y="123.94" text-anchor="middle" style="font-family: 'Open Sans', verdana, arial, sans-serif; font-size: 6px; fill: rgb(42, 63, 95); fill-opacity: 1; white-space: pre;">Amgen Inc.</text></g><g class="textpoint" transform="translate(0,-10)"><text x="216.23" y="119.12" text-anchor="middle" style="font-family: 'Open Sans', verdana, arial, sans-serif; font-size: 6px; fill: rgb(42, 63, 95); fill-opacity: 1; white-space: pre;">Bristol Myers Squibb</text></g><g class="textpoint" transform="translate(0,-10)"><text x="79.65" y="19.74" text-anchor="middle" style="font-family: 'Open Sans', verdana, arial, sans-serif; font-size: 6px; fill: rgb(42, 63, 95); fill-opacity: 1; white-space: pre;">CVS Health</text></g><g class="textpoint" transform="translate(0,-10)"><text x="125.13" y="126" text-anchor="middle" style="font-family: 'Open Sans', verdana, arial, sans-serif; font-size: 6px; fill: rgb(42, 63, 95); fill-opacity: 1; white-space: pre;">Eli Lilly</text></g><g class="textpoint" transform="translate(0,-10)"><text x="356.25" y="125.75" text-anchor="middle" style="font-family: 'Open Sans', verdana, arial, sans-serif; font-size: 6px; fill: rgb(42, 63, 95); fill-opacity: 1; white-space: pre;">Gilead Sciences Inc.</text></g><g class="textpoint" transform="translate(0,-10)"><text x="103.15" y="69.36" text-anchor="middle" style="font-family: 'Open Sans', verdana, arial, sans-serif; font-size: 6px; fill: rgb(42, 63, 95); fill-opacity: 1; white-space: pre;">Johnson &amp; Johnson</text></g><g class="textpoint" transform="translate(0,-10)"><text x="223.03" y="112.34" text-anchor="middle" style="font-family: 'Open Sans', verdana, arial, sans-serif; font-size: 6px; fill: rgb(42, 63, 95); fill-opacity: 1; white-space: pre;">Medtronic</text></g><g class="textpoint" transform="translate(0,-10)"><text x="89.38" y="98.2" text-anchor="middle" style="font-family: 'Open Sans', verdana, arial, sans-serif; font-size: 6px; fill: rgb(42, 63, 95); fill-opacity: 1; white-space: pre;">Merck &amp; Co.</text></g><g class="textpoint" transform="translate(0,-10)"><text x="65" y="89.42" text-anchor="middle" style="font-family: 'Open Sans', verdana, arial, sans-serif; font-size: 6px; fill: rgb(42, 63, 95); fill-opacity: 1; white-space: pre;">Pfizer Inc.</text></g><g class="textpoint" transform="translate(0,-10)"><text x="274.67" y="22.28" text-anchor="middle" style="font-family: 'Open Sans', verdana, arial, sans-serif; font-size: 6px; fill: rgb(42, 63, 95); fill-opacity: 1; white-space: pre;">United Health Group</text></g><g class="textpoint" transform="translate(0,-10)"><text x="27.4" y="47.1" text-anchor="middle" style="font-family: 'Open Sans', verdana, arial, sans-serif; font-size: 6px; fill: rgb(42, 63, 95); fill-opacity: 1; white-space: pre;">Walgreens Boots Alliance</text></g></g></g><g class="trace scatter tracee2da30" style="stroke-miterlimit: 2; opacity: 1;"><g class="fills"/><g class="errorbars"/><g class="lines"/><g class="points"><path class="point" transform="translate(365.6,147.87)" d="M10,0A10,10 0 1,1 0,-10A10,10 0 0,1 10,0Z" style="opacity: 1; stroke-width: 0px; fill: rgb(222, 66, 91); fill-opacity: 1;"/></g><g class="text"><g class="textpoint" transform="translate(0,-15)"><text x="365.6" y="147.87" text-anchor="middle" style="font-family: 'Open Sans', verdana, arial, sans-serif; font-size: 6px; fill: rgb(222, 66, 91); fill-opacity: 1; white-space: pre;">Biogen Inc.</text></g></g></g><g class="trace scatter trace896185" style="stroke-miterlimit: 2; opacity: 1;"><g class="fills"/><g class="errorbars"/><g class="lines"><path class="js-line" d="M138.25,161.5L138.25,8.5" style="vector-effect: non-scaling-stroke; fill: none; stroke: rgb(128, 128, 128); stroke-opacity: 1; stroke-width: 5px; opacity: 1; stroke-dasharray: 15px, 15px;"/></g><g class="points"/><g class="text"/></g><g class="trace scatter traceb5c789" style="stroke-miterlimit: 2; opacity: 1;"><g class="fills"/><g class="errorbars"/><g class="lines"><path class="js-line" d="M2.36,109.54L394.27,109.54" style="vector-effect: non-scaling-stroke; fill: none; stroke: rgb(128, 128, 128); stroke-opacity: 1; stroke-width: 5px; opacity: 1; stroke-dasharray: 15px, 15px;"/></g><g class="points"/><g class="text"/></g></g></g><g class="overplot"/><path class="xlines-above crisp" d="M0,0" style="fill: none;"/><path class="ylines-above crisp" d="M0,0" style="fill: none;"/><g class="overlines-above"/><g class="xaxislayer-above"><g class="xtick"><text text-anchor="middle" x="0" y="259.5" transform="translate(79.2,0)" style="font-family: 'Open Sans', verdana, arial, sans-serif; font-size: 4.5px; fill: rgb(42, 63, 95); fill-opacity: 1; white-space: pre; opacity: 1;">2</text></g><g class="xtick"><text text-anchor="middle" x="-1.5" y="264" style="font-family: 'Open Sans', verdana, arial, sans-serif; font-size: 6px; fill: rgb(42, 63, 95); fill-opacity: 1; white-space: pre; opacity: 1;" transform="translate(148.31,0)">1M</text></g><g class="xtick"><text text-anchor="middle" x="0" y="259.5" style="font-family: 'Open Sans', verdana, arial, sans-serif; font-size: 4.5px; fill: rgb(42, 63, 95); fill-opacity: 1; white-space: pre; opacity: 1;" transform="translate(158.81,0)">9</text></g><g class="xtick"><text text-anchor="middle" x="0" y="259.5" style="font-family: 'Open Sans', verdana, arial, sans-serif; font-size: 4.5px; fill: rgb(42, 63, 95); fill-opacity: 1; white-space: pre; opacity: 1;" transform="translate(170.55,0)">8</text></g><g class="xtick"><text text-anchor="middle" x="0" y="259.5" style="font-family: 'Open Sans', verdana, arial, sans-serif; font-size: 4.5px; fill: rgb(42, 63, 95); fill-opacity: 1; white-space: pre; opacity: 1;" transform="translate(183.87,0)">7</text></g><g class="xtick"><text text-anchor="middle" x="0" y="259.5" style="font-family: 'Open Sans', verdana, arial, sans-serif; font-size: 4.5px; fill: rgb(42, 63, 95); fill-opacity: 1; white-space: pre; opacity: 1;" transform="translate(199.24,0)">6</text></g><g class="xtick"><text text-anchor="middle" x="0" y="259.5" style="font-family: 'Open Sans', verdana, arial, sans-serif; font-size: 4.5px; fill: rgb(42, 63, 95); fill-opacity: 1; white-space: pre; opacity: 1;" transform="translate(217.41,0)">5</text></g><g class="xtick"><text text-anchor="middle" x="0" y="259.5" style="font-family: 'Open Sans', verdana, arial, sans-serif; font-size: 4.5px; fill: rgb(42, 63, 95); fill-opacity: 1; white-space: pre; opacity: 1;" transform="translate(239.66,0)">4</text></g><g class="xtick"><text text-anchor="middle" x="0" y="259.5" style="font-family: 'Open Sans', verdana, arial, sans-serif; font-size: 4.5px; fill: rgb(42, 63, 95); fill-opacity: 1; white-space: pre; opacity: 1;" transform="translate(268.34000000000003,0)">3</text></g><g class="xtick"><text text-anchor="middle" x="0" y="259.5" style="font-family: 'Open Sans', verdana, arial, sans-serif; font-size: 4.5px; fill: rgb(42, 63, 95); fill-opacity: 1; white-space: pre; opacity: 1;" transform="translate(308.77,0)">2</text></g><g class="xtick"><text text-anchor="middle" x="-1.5" y="264" style="font-family: 'Open Sans', verdana, arial, sans-serif; font-size: 6px; fill: rgb(42, 63, 95); fill-opacity: 1; white-space: pre; opacity: 1;" transform="translate(377.88,0)">100k</text></g><g class="xtick"><text text-anchor="middle" x="0" y="259.5" style="font-family: 'Open Sans', verdana, arial, sans-serif; font-size: 4.5px; fill: rgb(42, 63, 95); fill-opacity: 1; white-space: pre; opacity: 1;" transform="translate(388.38,0)">9</text></g><g class="xtick"><text text-anchor="middle" x="0" y="259.5" style="font-family: 'Open Sans', verdana, arial, sans-serif; font-size: 4.5px; fill: rgb(42, 63, 95); fill-opacity: 1; white-space: pre; opacity: 1;" transform="translate(400.12,0)">8</text></g><g class="xtick"><text text-anchor="middle" x="0" y="259.5" style="font-family: 'Open Sans', verdana, arial, sans-serif; font-size: 4.5px; fill: rgb(42, 63, 95); fill-opacity: 1; white-space: pre; opacity: 1;" transform="translate(413.44,0)">7</text></g><g class="xtick"><text text-anchor="middle" x="0" y="259.5" style="font-family: 'Open Sans', verdana, arial, sans-serif; font-size: 4.5px; fill: rgb(42, 63, 95); fill-opacity: 1; white-space: pre; opacity: 1;" transform="translate(428.81,0)">6</text></g><g class="xtick"><text text-anchor="middle" x="0" y="259.5" style="font-family: 'Open Sans', verdana, arial, sans-serif; font-size: 4.5px; fill: rgb(42, 63, 95); fill-opacity: 1; white-space: pre; opacity: 1;" transform="translate(446.98,0)">5</text></g></g><g class="yaxislayer-above"><g class="ytick"><text text-anchor="end" x="47" y="2.0999999999999996" transform="translate(0,240.93)" style="font-family: 'Open Sans', verdana, arial, sans-serif; font-size: 6px; fill: rgb(42, 63, 95); fill-opacity: 1; white-space: pre; opacity: 1;">10B</text></g><g class="ytick"><text text-anchor="end" x="47" y="1.575" style="font-family: 'Open Sans', verdana, arial, sans-serif; font-size: 4.5px; fill: rgb(42, 63, 95); fill-opacity: 1; white-space: pre; opacity: 1;" transform="translate(0,210.78)">2</text></g><g class="ytick"><text text-anchor="end" x="47" y="1.575" style="font-family: 'Open Sans', verdana, arial, sans-serif; font-size: 4.5px; fill: rgb(42, 63, 95); fill-opacity: 1; white-space: pre; opacity: 1;" transform="translate(0,170.91)">5</text></g><g class="ytick"><text text-anchor="end" x="47" y="2.0999999999999996" style="font-family: 'Open Sans', verdana, arial, sans-serif; font-size: 6px; fill: rgb(42, 63, 95); fill-opacity: 1; white-space: pre; opacity: 1;" transform="translate(0,140.76)">100B</text></g><g class="ytick"><text text-anchor="end" x="47" y="1.575" style="font-family: 'Open Sans', verdana, arial, sans-serif; font-size: 4.5px; fill: rgb(42, 63, 95); fill-opacity: 1; white-space: pre; opacity: 1;" transform="translate(0,110.61)">2</text></g></g><g class="overaxes-above"/></g></g><g class="polarlayer"/><g class="ternarylayer"/><g class="geolayer"/><g class="funnelarealayer"/><g class="pielayer"/><g class="iciclelayer"/><g class="treemaplayer"/><g class="sunburstlayer"/><g class="glimages"/><defs id="topdefs-caee15"><g class="clips"/></defs><g class="layer-above"><g class="imagelayer"/><g class="shapelayer"/></g><g class="infolayer"><g class="g-gtitle"><text class="gtitle" x="250" y="40" text-anchor="middle" dy="0em" style="font-family: Arial; font-size: 12px; fill: rgb(42, 63, 95); opacity: 1; font-weight: normal; white-space: pre;"><tspan class="line" dy="0em" x="250" y="40"><tspan style="font-weight:bold">GHG Emissions vs. Revenue</tspan></tspan><tspan class="line" dy="1.3em" x="250" y="40">Sector: Healthcare</tspan></text></g><g class="g-xtitle"><text class="xtitle" x="251" y="285.4" text-anchor="middle" style="font-family: 'Open Sans', verdana, arial, sans-serif; font-size: 7px; fill: rgb(42, 63, 95); opacity: 1; font-weight: normal; white-space: pre;"><tspan style="font-style:italic">high</tspan>----------<tspan style="font-weight:bold">Scope1+2 Emissions</tspan>----------<tspan style="font-style:italic">low</tspan></text></g><g class="g-ytitle"><text class="ytitle" transform="rotate(-90,11.537500000000001,165)" x="11.537500000000001" y="165" text-anchor="middle" style="font-family: 'Open Sans', verdana, arial, sans-serif; font-size: 7px; fill: rgb(42, 63, 95); opacity: 1; font-weight: normal; white-space: pre;">Revenue</text></g></g></svg>