<svg class="main-svg" xmlns="http://www.w3.org/2000/svg" xmlns:xlink="http://www.w3.org/1999/xlink" width="1500" height="900" style="" viewBox="0 0 500 300"><rect x="0" y="0" width="500" height="300" style="fill: rgb(186, 208, 175); fill-opacity: 1;"/><defs id="defs-f97dcf"><g class="clips"><clipPath id="clipf97dcfxyplot" class="plotclip"><rect width="377" height="164"/></clipPath><clipPath class="axesclip" id="clipf97dcfx"><rect x="73" y="0" width="377" height="300"/></clipPath><clipPath class="axesclip" id="clipf97dcfy"><rect x="0" y="80" width="500" height="164"/></clipPath><clipPath class="axesclip" id="clipf97dcfxy"><rect x="73" y="80" width="377" height="164"/></clipPath></g><g class="gradients"/><g class="patterns"/></defs><g class="bglayer"><rect class="bg" x="69" y="76" width="385" height="172" style="fill: rgb(241, 241, 241); fill-opacity: 1; stroke-width: 0;"/></g><g class="layer-below"><g class="imagelayer"/><g class="shapelayer"/></g><g class="cartesianlayer"><g class="subplot xy"><g class="layer-subplot"><g class="shapelayer"/><g class="imagelayer"/></g><g class="gridlayer"><g class="x"><path class="xgrid crisp" transform="translate(104.16,0)" d="M0,80v164" style="stroke: rgb(255, 255, 255); stroke-opacity: 1; stroke-width: 1px;"/><path class="xgrid crisp" transform="translate(169.41,0)" d="M0,80v164" style="stroke: rgb(255, 255, 255); stroke-opacity: 1; stroke-width: 1px;"/><path class="xgrid crisp" transform="translate(234.65,0)" d="M0,80v164" style="stroke: rgb(255, 255, 255); stroke-opacity: 1; stroke-width: 1px;"/><path class="xgrid crisp" transform="translate(320.9,0)" d="M0,80v164" style="stroke: rgb(255, 255, 255); stroke-opacity: 1; stroke-width: 1px;"/><path class="xgrid crisp" transform="translate(386.15,0)" d="M0,80v164" style="stroke: rgb(255, 255, 255); stroke-opacity: 1; stroke-width: 1px;"/></g><g class="y"><path class="ygrid crisp" transform="translate(0,241.81)" d="M73,0h377" style="stroke: rgb(255, 255, 255); stroke-opacity: 1; stroke-width: 1px;"/><path class="ygrid crisp" transform="translate(0,210.61)" d="M73,0h377" style="stroke: rgb(255, 255, 255); stroke-opacity: 1; stroke-width: 1px;"/><path class="ygrid crisp" transform="translate(0,169.36)" d="M73,0h377" style="stroke: rgb(255, 255, 255); stroke-opacity: 1; stroke-width: 1px;"/><path class="ygrid crisp" transform="translate(0,138.15)" d="M73,0h377" style="stroke: rgb(255, 255, 255); stroke-opacity: 1; stroke-width: 1px;"/><path class="ygrid crisp" transform="translate(0,106.95)" d="M73,0h377" style="stroke: rgb(255, 255, 255); stroke-opacity: 1; stroke-width: 1px;"/></g></g><g class="zerolinelayer"/><path class="xlines-below"/><path class="ylines-below"/><g class="overlines-below"/><g class="xaxislayer-below"/><g class="yaxislayer-below"/><g class="overaxes-below"/><g class="plot" transform="translate(73,80)" clip-path="url(#clipf97dcfxyplot)"><g class="scatterlayer mlayer"><g class="trace scatter trace5b441a" style="stroke-miterlimit: 2; opacity: 1;"><g class="fills"/><g class="errorbars"/><g class="lines"><path class="js-line" d="M136.01,148.3L136.01,15.7" style="vector-effect: non-scaling-stroke; fill: none; stroke: rgb(128, 128, 128); stroke-opacity: 1; stroke-width: 2px; opacity: 1; stroke-dasharray: 9px, 9px;"/></g><g class="points"/><g class="text"/></g><g class="trace scatter tracef9b730" style="stroke-miterlimit: 2; opacity: 1;"><g class="fills"/><g class="errorbars"/><g class="lines"><path class="js-line" d="M350.65,108.63L31.35,108.63" style="vector-effect: non-scaling-stroke; fill: none; stroke: rgb(128, 128, 128); stroke-opacity: 1; stroke-width: 2px; opacity: 1; stroke-dasharray: 9px, 9px;"/></g><g class="points"/><g class="text"/></g><g class="trace scatter trace42b830" style="stroke-miterlimit: 2; opacity: 1;"><g class="fills"/><g class="errorbars"/><g class="lines"/><g class="points"><path class="point" transform="translate(99.08,109.58)" d="M6,0A6,6 0 1,1 0,-6A6,6 0 0,1 6,0Z" style="opacity: 0.4; stroke-width: 0px; fill: rgb(72, 143, 49); fill-opacity: 1;"/><path class="point" transform="translate(150.28,107.7)" d="M6,0A6,6 0 1,1 0,-6A6,6 0 0,1 6,0Z" style="opacity: 0.4; stroke-width: 0px; fill: rgb(72, 143, 49); fill-opacity: 1;"/><path class="point" transform="translate(210.9,123.54)" d="M6,0A6,6 0 1,1 0,-6A6,6 0 0,1 6,0Z" style="opacity: 0.4; stroke-width: 0px; fill: rgb(72, 143, 49); fill-opacity: 1;"/><path class="point" transform="translate(350.65,148.3)" d="M6,0A6,6 0 1,1 0,-6A6,6 0 0,1 6,0Z" style="opacity: 0.4; stroke-width: 0px; fill: rgb(72, 143, 49); fill-opacity: 1;"/><path class="point" transform="translate(209.63,118.54)" d="M6,0A6,6 0 1,1 0,-6A6,6 0 0,1 6,0Z" style="opacity: 0.4; stroke-width: 0px; fill: rgb(72, 143, 49); fill-opacity: 1;"/><path class="point" transform="translate(80.68,15.7)" d="M6,0A6,6 0 1,1 0,-6A6,6 0 0,1 6,0Z" style="opacity: 0.4; stroke-width: 0px; fill: rgb(72, 143, 49); fill-opacity: 1;"/><path class="point" transform="translate(123.62,125.67)" d="M6,0A6,6 0 1,1 0,-6A6,6 0 0,1 6,0Z" style="opacity: 0.4; stroke-width: 0px; fill: rgb(72, 143, 49); fill-opacity: 1;"/><path class="point" transform="translate(341.83,125.41)" d="M6,0A6,6 0 1,1 0,-6A6,6 0 0,1 6,0Z" style="opacity: 0.4; stroke-width: 0px; fill: rgb(72, 143, 49); fill-opacity: 1;"/><path class="point" transform="translate(102.87,67.05)" d="M6,0A6,6 0 1,1 0,-6A6,6 0 0,1 6,0Z" style="opacity: 0.4; stroke-width: 0px; fill: rgb(72, 143, 49); fill-opacity: 1;"/><path class="point" transform="translate(216.05,111.52)" d="M6,0A6,6 0 1,1 0,-6A6,6 0 0,1 6,0Z" style="opacity: 0.4; stroke-width: 0px; fill: rgb(72, 143, 49); fill-opacity: 1;"/><path class="point" transform="translate(89.86,96.9)" d="M6,0A6,6 0 1,1 0,-6A6,6 0 0,1 6,0Z" style="opacity: 0.4; stroke-width: 0px; fill: rgb(72, 143, 49); fill-opacity: 1;"/><path class="point" transform="translate(66.85,87.81)" d="M6,0A6,6 0 1,1 0,-6A6,6 0 0,1 6,0Z" style="opacity: 0.4; stroke-width: 0px; fill: rgb(72, 143, 49); fill-opacity: 1;"/><path class="point" transform="translate(264.8,18.33)" d="M6,0A6,6 0 1,1 0,-6A6,6 0 0,1 6,0Z" style="opacity: 0.4; stroke-width: 0px; fill: rgb(72, 143, 49); fill-opacity: 1;"/></g><g class="text"><g class="textpoint" transform="translate(0,-11.5)"><text x="99.08" y="109.58" text-anchor="middle" style="font-family: 'Open Sans', verdana, arial, sans-serif; font-size: 12px; fill: rgb(42, 63, 95); fill-opacity: 1; white-space: pre;">Abbott Laboratories</text></g><g class="textpoint" transform="translate(0,-11.5)"><text x="150.28" y="107.7" text-anchor="middle" style="font-family: 'Open Sans', verdana, arial, sans-serif; font-size: 12px; fill: rgb(42, 63, 95); fill-opacity: 1; white-space: pre;">AbbVie Inc.</text></g><g class="textpoint" transform="translate(0,-11.5)"><text x="210.9" y="123.54" text-anchor="middle" style="font-family: 'Open Sans', verdana, arial, sans-serif; font-size: 12px; fill: rgb(42, 63, 95); fill-opacity: 1; white-space: pre;">Amgen Inc.</text></g><g class="textpoint" transform="translate(0,-11.5)"><text x="350.65" y="148.3" text-anchor="middle" style="font-family: 'Open Sans', verdana, arial, sans-serif; font-size: 12px; fill: rgb(42, 63, 95); fill-opacity: 1; white-space: pre;">Biogen Inc.</text></g><g class="textpoint" transform="translate(0,-11.5)"><text x="209.63" y="118.54" text-anchor="middle" style="font-family: 'Open Sans', verdana, arial, sans-serif; font-size: 12px; fill: rgb(42, 63, 95); fill-opacity: 1; white-space: pre;">Bristol Myers Squibb</text></g><g class="textpoint" transform="translate(0,-11.5)"><text x="80.68" y="15.7" text-anchor="middle" style="font-family: 'Open Sans', verdana, arial, sans-serif; font-size: 12px; fill: rgb(42, 63, 95); fill-opacity: 1; white-space: pre;">CVS Health</text></g><g class="textpoint" transform="translate(0,-11.5)"><text x="123.62" y="125.67" text-anchor="middle" style="font-family: 'Open Sans', verdana, arial, sans-serif; font-size: 12px; fill: rgb(42, 63, 95); fill-opacity: 1; white-space: pre;">Eli Lilly</text></g><g class="textpoint" transform="translate(0,-11.5)"><text x="341.83" y="125.41" text-anchor="middle" style="font-family: 'Open Sans', verdana, arial, sans-serif; font-size: 12px; fill: rgb(42, 63, 95); fill-opacity: 1; white-space: pre;">Gilead Sciences Inc.</text></g><g class="textpoint" transform="translate(0,-11.5)"><text x="102.87" y="67.05" text-anchor="middle" style="font-family: 'Open Sans', verdana, arial, sans-serif; font-size: 12px; fill: rgb(42, 63, 95); fill-opacity: 1; white-space: pre;">Johnson &amp; Johnson</text></g><g class="textpoint" transform="translate(0,-11.5)"><text x="216.05" y="111.52" text-anchor="middle" style="font-family: 'Open Sans', verdana, arial, sans-serif; font-size: 12px; fill: rgb(42, 63, 95); fill-opacity: 1; white-space: pre;">Medtronic</text></g><g class="textpoint" transform="translate(0,-11.5)"><text x="89.86" y="96.9" text-anchor="middle" style="font-family: 'Open Sans', verdana, arial, sans-serif; font-size: 12px; fill: rgb(42, 63, 95); fill-opacity: 1; white-space: pre;">Merck &amp; Co.</text></g><g class="textpoint" transform="translate(0,-11.5)"><text x="66.85" y="87.81" text-anchor="middle" style="font-family: 'Open Sans', verdana, arial, sans-serif; font-size: 12px; fill: rgb(42, 63, 95); fill-opacity: 1; white-space: pre;">Pfizer Inc.</text></g><g class="textpoint" transform="translate(0,-11.5)"><text x="264.8" y="18.33" text-anchor="middle" style="font-family: 'Open Sans', verdana, arial, sans-serif; font-size: 12px; fill: rgb(42, 63, 95); fill-opacity: 1; white-space: pre;">United Health Group</text></g></g></g><g class="trace scatter traceac9c14" style="stroke-miterlimit: 2; opacity: 1;"><g class="fills"/><g class="errorbars"/><g class="lines"/><g class="points"><path class="point" transform="translate(31.35,44.01)" d="M10,0A10,10 0 1,1 0,-10A10,10 0 0,1 10,0Z" style="opacity: 1; stroke-width: 0px; fill: rgb(222, 66, 91); fill-opacity: 1;"/></g><g class="text"><g class="textpoint" transform="translate(0,-16.5)"><text x="31.35" y="44.01" text-anchor="middle" style="font-family: 'Open Sans', verdana, arial, sans-serif; font-size: 12px; fill: rgb(222, 66, 91); fill-opacity: 1; white-space: pre;">Walgreens Boots Alliance</text></g></g></g></g></g><g class="overplot"/><path class="xlines-above crisp" d="M0,0" style="fill: none;"/><path class="ylines-above crisp" d="M0,0" style="fill: none;"/><g class="overlines-above"/><g class="xaxislayer-above"><g class="xtick"><text text-anchor="middle" x="0" y="258" transform="translate(104.16,0)" style="font-family: 'Open Sans', verdana, arial, sans-serif; font-size: 9px; fill: rgb(42, 63, 95); fill-opacity: 1; white-space: pre; opacity: 1;">2</text></g><g class="xtick"><text text-anchor="middle" x="0" y="261" style="font-family: 'Open Sans', verdana, arial, sans-serif; font-size: 12px; fill: rgb(42, 63, 95); fill-opacity: 1; white-space: pre; opacity: 1;" transform="translate(169.41,0)">1M</text></g><g class="xtick"><text text-anchor="middle" x="0" y="258" style="font-family: 'Open Sans', verdana, arial, sans-serif; font-size: 9px; fill: rgb(42, 63, 95); fill-opacity: 1; white-space: pre; opacity: 1;" transform="translate(234.65,0)">5</text></g><g class="xtick"><text text-anchor="middle" x="0" y="258" style="font-family: 'Open Sans', verdana, arial, sans-serif; font-size: 9px; fill: rgb(42, 63, 95); fill-opacity: 1; white-space: pre; opacity: 1;" transform="translate(320.9,0)">2</text></g><g class="xtick"><text text-anchor="middle" x="0" y="261" style="font-family: 'Open Sans', verdana, arial, sans-serif; font-size: 12px; fill: rgb(42, 63, 95); fill-opacity: 1; white-space: pre; opacity: 1;" transform="translate(386.15,0)">100k</text></g></g><g class="yaxislayer-above"><g class="ytick"><text text-anchor="end" x="68" y="4.199999999999999" transform="translate(0,241.81)" style="font-family: 'Open Sans', verdana, arial, sans-serif; font-size: 12px; fill: rgb(42, 63, 95); fill-opacity: 1; white-space: pre; opacity: 1;">10B</text></g><g class="ytick"><text text-anchor="end" x="68" y="3.15" style="font-family: 'Open Sans', verdana, arial, sans-serif; font-size: 9px; fill: rgb(42, 63, 95); fill-opacity: 1; white-space: pre; opacity: 1;" transform="translate(0,210.61)">2</text></g><g class="ytick"><text text-anchor="end" x="68" y="3.15" style="font-family: 'Open Sans', verdana, arial, sans-serif; font-size: 9px; fill: rgb(42, 63, 95); fill-opacity: 1; white-space: pre; opacity: 1;" transform="translate(0,169.36)">5</text></g><g class="ytick"><text text-anchor="end" x="68" y="4.199999999999999" style="font-family: 'Open Sans', verdana, arial, sans-serif; font-size: 12px; fill: rgb(42, 63, 95); fill-opacity: 1; white-space: pre; opacity: 1;" transform="translate(0,138.15)">100B</text></g><g class="ytick"><text text-anchor="end" x="68" y="3.15" style="font-family: 'Open Sans', verdana, arial, sans-serif; font-size: 9px; fill: rgb(42, 63, 95); fill-opacity: 1; white-space: pre; opacity: 1;" transform="translate(0,106.95)">2</text></g></g><g class="overaxes-above"/></g></g><g class="polarlayer"/><g class="ternarylayer"/><g class="geolayer"/><g class="funnelarealayer"/><g class="pielayer"/><g class="iciclelayer"/><g class="treemaplayer"/><g class="sunburstlayer"/><g class="glimages"/><defs id="topdefs-f97dcf"><g class="clips"/></defs><g class="layer-above"><g class="imagelayer"/><g class="shapelayer"/></g><g class="infolayer"><g class="g-gtitle"><text class="gtitle" x="250" y="40" text-anchor="middle" dy="0em" style="font-family: Arial; font-size: 16px; fill: rgb(42, 63, 95); opacity: 1; font-weight: normal; white-space: pre;"><tspan class="line" dy="0em" x="250" y="40"><tspan style="font-weight:bold">GHG Emissions vs. Revenue</tspan></tspan><tspan class="line" dy="1.3em" x="250" y="40">Sector: Healthcare</tspan></text></g><g class="g-xtitle"><text class="xtitle" x="261.5" y="288.3" text-anchor="middle" style="font-family: 'Open Sans', verdana, arial, sans-serif; font-size: 14px; fill: rgb(42, 63, 95); opacity: 1; font-weight: normal; white-space: pre;"><tspan style="font-style:italic">high</tspan>----------<tspan style="font-weight:bold">Scope1+2 Emissions</tspan>----------<tspan style="font-style:italic">low</tspan></text></g><g class="g-ytitle" transform="translate(1.9248046875,0)"><text class="ytitle" transform="rotate(-90,12.075000000000003,162)" x="12.075000000000003" y="162" text-anchor="middle" style="font-family: 'Open Sans', verdana, arial, sans-serif; font-size: 14px; fill: rgb(42, 63, 95); opacity: 1; font-weight: normal; white-space: pre;">Revenue</text></g></g></svg>