<svg class="main-svg" xmlns="http://www.w3.org/2000/svg" xmlns:xlink="http://www.w3.org/1999/xlink" width="1500" height="900" style="" viewBox="0 0 500 300"><rect x="0" y="0" width="500" height="300" style="fill: rgb(255, 255, 255); fill-opacity: 1;"/><defs id="defs-4c65c7"><g class="clips"><clipPath id="clip4c65c7xyplot" class="plotclip"><rect width="398" height="170"/></clipPath><clipPath class="axesclip" id="clip4c65c7x"><rect x="52" y="0" width="398" height="300"/></clipPath><clipPath class="axesclip" id="clip4c65c7y"><rect x="0" y="80" width="500" height="170"/></clipPath><clipPath class="axesclip" id="clip4c65c7xy"><rect x="52" y="80" width="398" height="170"/></clipPath></g><g class="gradients"/><g class="patterns"/></defs><g class="bglayer"/><g class="layer-below"><g class="imagelayer"/><g class="shapelayer"/></g><g class="cartesianlayer"><g class="subplot xy"><g class="layer-subplot"><g class="shapelayer"><path data-index="0" fill-rule="evenodd" d="M195.25,191.22H447.64V88.5H195.25Z" clip-path="url(#clip4c65c7xy)" style="opacity: 0.2; stroke: rgb(255, 165, 0); stroke-opacity: 1; fill: rgb(0, 128, 0); fill-opacity: 1; stroke-dasharray: 3px, 3px; stroke-width: 0.5px;"/><path data-index="1" fill-rule="evenodd" d="M55.73,241.5H195.25V191.22H55.73Z" clip-path="url(#clip4c65c7xy)" style="opacity: 0.2; stroke: rgb(255, 165, 0); stroke-opacity: 1; fill: rgb(255, 0, 0); fill-opacity: 1; stroke-dasharray: 3px, 3px; stroke-width: 0.5px;"/><path data-index="2" fill-rule="evenodd" d="M55.73,191.22H195.25V88.5H55.73Z" clip-path="url(#clip4c65c7xy)" style="opacity: 0.2; stroke: rgb(255, 165, 0); stroke-opacity: 1; fill: rgb(255, 165, 0); fill-opacity: 1; stroke-dasharray: 3px, 3px; stroke-width: 0.5px;"/><path data-index="3" fill-rule="evenodd" d="M195.25,241.5H447.64V191.22H195.25Z" clip-path="url(#clip4c65c7xy)" style="opacity: 0.2; stroke: rgb(255, 165, 0); stroke-opacity: 1; fill: rgb(255, 165, 0); fill-opacity: 1; stroke-dasharray: 3px, 3px; stroke-width: 0.5px;"/></g><g class="imagelayer"/></g><g class="gridlayer"><g class="x"><path class="xgrid crisp" transform="translate(84.2,0)" d="M0,80v170" style="stroke: rgb(255, 255, 255); stroke-opacity: 1; stroke-width: 1px;"/><path class="xgrid crisp" transform="translate(153.31,0)" d="M0,80v170" style="stroke: rgb(255, 255, 255); stroke-opacity: 1; stroke-width: 1px;"/><path class="xgrid crisp" transform="translate(163.81,0)" d="M0,80v170" style="stroke: rgb(255, 255, 255); stroke-opacity: 1; stroke-width: 1px;"/><path class="xgrid crisp" transform="translate(175.55,0)" d="M0,80v170" style="stroke: rgb(255, 255, 255); stroke-opacity: 1; stroke-width: 1px;"/><path class="xgrid crisp" transform="translate(188.87,0)" d="M0,80v170" style="stroke: rgb(255, 255, 255); stroke-opacity: 1; stroke-width: 1px;"/><path class="xgrid crisp" transform="translate(204.24,0)" d="M0,80v170" style="stroke: rgb(255, 255, 255); stroke-opacity: 1; stroke-width: 1px;"/><path class="xgrid crisp" transform="translate(222.41,0)" d="M0,80v170" style="stroke: rgb(255, 255, 255); stroke-opacity: 1; stroke-width: 1px;"/><path class="xgrid crisp" transform="translate(244.66,0)" d="M0,80v170" style="stroke: rgb(255, 255, 255); stroke-opacity: 1; stroke-width: 1px;"/><path class="xgrid crisp" transform="translate(273.34000000000003,0)" d="M0,80v170" style="stroke: rgb(255, 255, 255); stroke-opacity: 1; stroke-width: 1px;"/><path class="xgrid crisp" transform="translate(313.77,0)" d="M0,80v170" style="stroke: rgb(255, 255, 255); stroke-opacity: 1; stroke-width: 1px;"/><path class="xgrid crisp" transform="translate(382.88,0)" d="M0,80v170" style="stroke: rgb(255, 255, 255); stroke-opacity: 1; stroke-width: 1px;"/><path class="xgrid crisp" transform="translate(393.38,0)" d="M0,80v170" style="stroke: rgb(255, 255, 255); stroke-opacity: 1; stroke-width: 1px;"/><path class="xgrid crisp" transform="translate(405.12,0)" d="M0,80v170" style="stroke: rgb(255, 255, 255); stroke-opacity: 1; stroke-width: 1px;"/><path class="xgrid crisp" transform="translate(418.44,0)" d="M0,80v170" style="stroke: rgb(255, 255, 255); stroke-opacity: 1; stroke-width: 1px;"/><path class="xgrid crisp" transform="translate(433.81,0)" d="M0,80v170" style="stroke: rgb(255, 255, 255); stroke-opacity: 1; stroke-width: 1px;"/></g><g class="y"><path class="ygrid crisp" transform="translate(0,243.56)" d="M52,0h398" style="stroke: rgb(255, 255, 255); stroke-opacity: 1; stroke-width: 1px;"/><path class="ygrid crisp" transform="translate(0,212.85)" d="M52,0h398" style="stroke: rgb(255, 255, 255); stroke-opacity: 1; stroke-width: 1px;"/><path class="ygrid crisp" transform="translate(0,172.24)" d="M52,0h398" style="stroke: rgb(255, 255, 255); stroke-opacity: 1; stroke-width: 1px;"/><path class="ygrid crisp" transform="translate(0,141.53)" d="M52,0h398" style="stroke: rgb(255, 255, 255); stroke-opacity: 1; stroke-width: 1px;"/><path class="ygrid crisp" transform="translate(0,110.81)" d="M52,0h398" style="stroke: rgb(255, 255, 255); stroke-opacity: 1; stroke-width: 1px;"/></g></g><g class="zerolinelayer"/><path class="xlines-below"/><path class="ylines-below"/><g class="overlines-below"/><g class="xaxislayer-below"/><g class="yaxislayer-below"/><g class="overaxes-below"/><g class="plot" transform="translate(52,80)" clip-path="url(#clip4c65c7xyplot)"><g class="scatterlayer mlayer"><g class="trace scatter tracecda205" style="stroke-miterlimit: 2; opacity: 1;"><g class="fills"/><g class="errorbars"/><g class="lines"/><g class="points"><path class="point" transform="translate(104.14,112.15)" d="M6,0A6,6 0 1,1 0,-6A6,6 0 0,1 6,0Z" style="opacity: 0.4; stroke-width: 0px; fill: rgb(72, 143, 49); fill-opacity: 1;"/><path class="point" transform="translate(158.37,110.3)" d="M6,0A6,6 0 1,1 0,-6A6,6 0 0,1 6,0Z" style="opacity: 0.4; stroke-width: 0px; fill: rgb(72, 143, 49); fill-opacity: 1;"/><path class="point" transform="translate(222.58,125.89)" d="M6,0A6,6 0 1,1 0,-6A6,6 0 0,1 6,0Z" style="opacity: 0.4; stroke-width: 0px; fill: rgb(72, 143, 49); fill-opacity: 1;"/><path class="point" transform="translate(370.6,150.26)" d="M6,0A6,6 0 1,1 0,-6A6,6 0 0,1 6,0Z" style="opacity: 0.4; stroke-width: 0px; fill: rgb(72, 143, 49); fill-opacity: 1;"/><path class="point" transform="translate(221.23,120.97)" d="M6,0A6,6 0 1,1 0,-6A6,6 0 0,1 6,0Z" style="opacity: 0.4; stroke-width: 0px; fill: rgb(72, 143, 49); fill-opacity: 1;"/><path class="point" transform="translate(84.65,19.74)" d="M6,0A6,6 0 1,1 0,-6A6,6 0 0,1 6,0Z" style="opacity: 0.4; stroke-width: 0px; fill: rgb(72, 143, 49); fill-opacity: 1;"/><path class="point" transform="translate(130.13,127.98)" d="M6,0A6,6 0 1,1 0,-6A6,6 0 0,1 6,0Z" style="opacity: 0.4; stroke-width: 0px; fill: rgb(72, 143, 49); fill-opacity: 1;"/><path class="point" transform="translate(361.25,127.73)" d="M6,0A6,6 0 1,1 0,-6A6,6 0 0,1 6,0Z" style="opacity: 0.4; stroke-width: 0px; fill: rgb(72, 143, 49); fill-opacity: 1;"/><path class="point" transform="translate(108.15,70.29)" d="M6,0A6,6 0 1,1 0,-6A6,6 0 0,1 6,0Z" style="opacity: 0.4; stroke-width: 0px; fill: rgb(72, 143, 49); fill-opacity: 1;"/><path class="point" transform="translate(228.03,114.06)" d="M6,0A6,6 0 1,1 0,-6A6,6 0 0,1 6,0Z" style="opacity: 0.4; stroke-width: 0px; fill: rgb(72, 143, 49); fill-opacity: 1;"/><path class="point" transform="translate(94.38,99.66)" d="M6,0A6,6 0 1,1 0,-6A6,6 0 0,1 6,0Z" style="opacity: 0.4; stroke-width: 0px; fill: rgb(72, 143, 49); fill-opacity: 1;"/><path class="point" transform="translate(70,90.72)" d="M6,0A6,6 0 1,1 0,-6A6,6 0 0,1 6,0Z" style="opacity: 0.4; stroke-width: 0px; fill: rgb(72, 143, 49); fill-opacity: 1;"/><path class="point" transform="translate(279.67,22.33)" d="M6,0A6,6 0 1,1 0,-6A6,6 0 0,1 6,0Z" style="opacity: 0.4; stroke-width: 0px; fill: rgb(72, 143, 49); fill-opacity: 1;"/></g><g class="text"><g class="textpoint" transform="translate(0,-10)"><text x="104.14" y="112.15" text-anchor="middle" style="font-family: 'Open Sans', verdana, arial, sans-serif; font-size: 6px; fill: rgb(42, 63, 95); fill-opacity: 1; white-space: pre;">Abbott Laboratories</text></g><g class="textpoint" transform="translate(0,-10)"><text x="158.37" y="110.3" text-anchor="middle" style="font-family: 'Open Sans', verdana, arial, sans-serif; font-size: 6px; fill: rgb(42, 63, 95); fill-opacity: 1; white-space: pre;">AbbVie Inc.</text></g><g class="textpoint" transform="translate(0,-10)"><text x="222.58" y="125.89" text-anchor="middle" style="font-family: 'Open Sans', verdana, arial, sans-serif; font-size: 6px; fill: rgb(42, 63, 95); fill-opacity: 1; white-space: pre;">Amgen Inc.</text></g><g class="textpoint" transform="translate(0,-10)"><text x="370.6" y="150.26" text-anchor="middle" style="font-family: 'Open Sans', verdana, arial, sans-serif; font-size: 6px; fill: rgb(42, 63, 95); fill-opacity: 1; white-space: pre;">Biogen Inc.</text></g><g class="textpoint" transform="translate(0,-10)"><text x="221.23" y="120.97" text-anchor="middle" style="font-family: 'Open Sans', verdana, arial, sans-serif; font-size: 6px; fill: rgb(42, 63, 95); fill-opacity: 1; white-space: pre;">Bristol Myers Squibb</text></g><g class="textpoint" transform="translate(0,-10)"><text x="84.65" y="19.74" text-anchor="middle" style="font-family: 'Open Sans', verdana, arial, sans-serif; font-size: 6px; fill: rgb(42, 63, 95); fill-opacity: 1; white-space: pre;">CVS Health</text></g><g class="textpoint" transform="translate(0,-10)"><text x="130.13" y="127.98" text-anchor="middle" style="font-family: 'Open Sans', verdana, arial, sans-serif; font-size: 6px; fill: rgb(42, 63, 95); fill-opacity: 1; white-space: pre;">Eli Lilly</text></g><g class="textpoint" transform="translate(0,-10)"><text x="361.25" y="127.73" text-anchor="middle" style="font-family: 'Open Sans', verdana, arial, sans-serif; font-size: 6px; fill: rgb(42, 63, 95); fill-opacity: 1; white-space: pre;">Gilead Sciences Inc.</text></g><g class="textpoint" transform="translate(0,-10)"><text x="108.15" y="70.29" text-anchor="middle" style="font-family: 'Open Sans', verdana, arial, sans-serif; font-size: 6px; fill: rgb(42, 63, 95); fill-opacity: 1; white-space: pre;">Johnson &amp; Johnson</text></g><g class="textpoint" transform="translate(0,-10)"><text x="228.03" y="114.06" text-anchor="middle" style="font-family: 'Open Sans', verdana, arial, sans-serif; font-size: 6px; fill: rgb(42, 63, 95); fill-opacity: 1; white-space: pre;">Medtronic</text></g><g class="textpoint" transform="translate(0,-10)"><text x="94.38" y="99.66" text-anchor="middle" style="font-family: 'Open Sans', verdana, arial, sans-serif; font-size: 6px; fill: rgb(42, 63, 95); fill-opacity: 1; white-space: pre;">Merck &amp; Co.</text></g><g class="textpoint" transform="translate(0,-10)"><text x="70" y="90.72" text-anchor="middle" style="font-family: 'Open Sans', verdana, arial, sans-serif; font-size: 6px; fill: rgb(42, 63, 95); fill-opacity: 1; white-space: pre;">Pfizer Inc.</text></g><g class="textpoint" transform="translate(0,-10)"><text x="279.67" y="22.33" text-anchor="middle" style="font-family: 'Open Sans', verdana, arial, sans-serif; font-size: 6px; fill: rgb(42, 63, 95); fill-opacity: 1; white-space: pre;">United Health Group</text></g></g></g><g class="trace scatter trace844753" style="stroke-miterlimit: 2; opacity: 1;"><g class="fills"/><g class="errorbars"/><g class="lines"/><g class="points"><path class="point" transform="translate(32.4,47.61)" d="M10,0A10,10 0 1,1 0,-10A10,10 0 0,1 10,0Z" style="opacity: 1; stroke-width: 0px; fill: rgb(222, 66, 91); fill-opacity: 1;"/></g><g class="text"><g class="textpoint" transform="translate(0,-15)"><text x="32.4" y="47.61" text-anchor="middle" style="font-family: 'Open Sans', verdana, arial, sans-serif; font-size: 6px; fill: rgb(222, 66, 91); fill-opacity: 1; white-space: pre;">Walgreens Boots Alliance</text></g></g></g><g class="trace scatter trace8951b4" style="stroke-miterlimit: 2; opacity: 1;"><g class="fills"/><g class="errorbars"/><g class="lines"><path class="js-line" d="M143.25,161.5L143.25,8.5" style="vector-effect: non-scaling-stroke; fill: none; stroke: rgb(128, 128, 128); stroke-opacity: 1; stroke-width: 5px; opacity: 1; stroke-dasharray: 15px, 15px;"/></g><g class="points"/><g class="text"/></g><g class="trace scatter trace4d5487" style="stroke-miterlimit: 2; opacity: 1;"><g class="fills"/><g class="errorbars"/><g class="lines"><path class="js-line" d="M3.73,111.22L395.64,111.22" style="vector-effect: non-scaling-stroke; fill: none; stroke: rgb(128, 128, 128); stroke-opacity: 1; stroke-width: 5px; opacity: 1; stroke-dasharray: 15px, 15px;"/></g><g class="points"/><g class="text"/></g></g></g><g class="overplot"/><path class="xlines-above crisp" d="M0,0" style="fill: none;"/><path class="ylines-above crisp" d="M0,0" style="fill: none;"/><g class="overlines-above"/><g class="xaxislayer-above"><g class="xtick"><text text-anchor="middle" x="0" y="259.5" transform="translate(84.2,0)" style="font-family: 'Open Sans', verdana, arial, sans-serif; font-size: 4.5px; fill: rgb(42, 63, 95); fill-opacity: 1; white-space: pre; opacity: 1;">2</text></g><g class="xtick"><text text-anchor="middle" x="-1.5" y="264" style="font-family: 'Open Sans', verdana, arial, sans-serif; font-size: 6px; fill: rgb(42, 63, 95); fill-opacity: 1; white-space: pre; opacity: 1;" transform="translate(153.31,0)">1M</text></g><g class="xtick"><text text-anchor="middle" x="0" y="259.5" style="font-family: 'Open Sans', verdana, arial, sans-serif; font-size: 4.5px; fill: rgb(42, 63, 95); fill-opacity: 1; white-space: pre; opacity: 1;" transform="translate(163.81,0)">9</text></g><g class="xtick"><text text-anchor="middle" x="0" y="259.5" style="font-family: 'Open Sans', verdana, arial, sans-serif; font-size: 4.5px; fill: rgb(42, 63, 95); fill-opacity: 1; white-space: pre; opacity: 1;" transform="translate(175.55,0)">8</text></g><g class="xtick"><text text-anchor="middle" x="0" y="259.5" style="font-family: 'Open Sans', verdana, arial, sans-serif; font-size: 4.5px; fill: rgb(42, 63, 95); fill-opacity: 1; white-space: pre; opacity: 1;" transform="translate(188.87,0)">7</text></g><g class="xtick"><text text-anchor="middle" x="0" y="259.5" style="font-family: 'Open Sans', verdana, arial, sans-serif; font-size: 4.5px; fill: rgb(42, 63, 95); fill-opacity: 1; white-space: pre; opacity: 1;" transform="translate(204.24,0)">6</text></g><g class="xtick"><text text-anchor="middle" x="0" y="259.5" style="font-family: 'Open Sans', verdana, arial, sans-serif; font-size: 4.5px; fill: rgb(42, 63, 95); fill-opacity: 1; white-space: pre; opacity: 1;" transform="translate(222.41,0)">5</text></g><g class="xtick"><text text-anchor="middle" x="0" y="259.5" style="font-family: 'Open Sans', verdana, arial, sans-serif; font-size: 4.5px; fill: rgb(42, 63, 95); fill-opacity: 1; white-space: pre; opacity: 1;" transform="translate(244.66,0)">4</text></g><g class="xtick"><text text-anchor="middle" x="0" y="259.5" style="font-family: 'Open Sans', verdana, arial, sans-serif; font-size: 4.5px; fill: rgb(42, 63, 95); fill-opacity: 1; white-space: pre; opacity: 1;" transform="translate(273.34000000000003,0)">3</text></g><g class="xtick"><text text-anchor="middle" x="0" y="259.5" style="font-family: 'Open Sans', verdana, arial, sans-serif; font-size: 4.5px; fill: rgb(42, 63, 95); fill-opacity: 1; white-space: pre; opacity: 1;" transform="translate(313.77,0)">2</text></g><g class="xtick"><text text-anchor="middle" x="-1.5" y="264" style="font-family: 'Open Sans', verdana, arial, sans-serif; font-size: 6px; fill: rgb(42, 63, 95); fill-opacity: 1; white-space: pre; opacity: 1;" transform="translate(382.88,0)">100k</text></g><g class="xtick"><text text-anchor="middle" x="0" y="259.5" style="font-family: 'Open Sans', verdana, arial, sans-serif; font-size: 4.5px; fill: rgb(42, 63, 95); fill-opacity: 1; white-space: pre; opacity: 1;" transform="translate(393.38,0)">9</text></g><g class="xtick"><text text-anchor="middle" x="0" y="259.5" style="font-family: 'Open Sans', verdana, arial, sans-serif; font-size: 4.5px; fill: rgb(42, 63, 95); fill-opacity: 1; white-space: pre; opacity: 1;" transform="translate(405.12,0)">8</text></g><g class="xtick"><text text-anchor="middle" x="0" y="259.5" style="font-family: 'Open Sans', verdana, arial, sans-serif; font-size: 4.5px; fill: rgb(42, 63, 95); fill-opacity: 1; white-space: pre; opacity: 1;" transform="translate(418.44,0)">7</text></g><g class="xtick"><text text-anchor="middle" x="0" y="259.5" style="font-family: 'Open Sans', verdana, arial, sans-serif; font-size: 4.5px; fill: rgb(42, 63, 95); fill-opacity: 1; white-space: pre; opacity: 1;" transform="translate(433.81,0)">6</text></g></g><g class="yaxislayer-above"><g class="ytick"><text text-anchor="end" x="47" y="2.0999999999999996" transform="translate(0,243.56)" style="font-family: 'Open Sans', verdana, arial, sans-serif; font-size: 6px; fill: rgb(42, 63, 95); fill-opacity: 1; white-space: pre; opacity: 1;">10B</text></g><g class="ytick"><text text-anchor="end" x="47" y="1.575" style="font-family: 'Open Sans', verdana, arial, sans-serif; font-size: 4.5px; fill: rgb(42, 63, 95); fill-opacity: 1; white-space: pre; opacity: 1;" transform="translate(0,212.85)">2</text></g><g class="ytick"><text text-anchor="end" x="47" y="1.575" style="font-family: 'Open Sans', verdana, arial, sans-serif; font-size: 4.5px; fill: rgb(42, 63, 95); fill-opacity: 1; white-space: pre; opacity: 1;" transform="translate(0,172.24)">5</text></g><g class="ytick"><text text-anchor="end" x="47" y="2.0999999999999996" style="font-family: 'Open Sans', verdana, arial, sans-serif; font-size: 6px; fill: rgb(42, 63, 95); fill-opacity: 1; white-space: pre; opacity: 1;" transform="translate(0,141.53)">100B</text></g><g class="ytick"><text text-anchor="end" x="47" y="1.575" style="font-family: 'Open Sans', verdana, arial, sans-serif; font-size: 4.5px; fill: rgb(42, 63, 95); fill-opacity: 1; white-space: pre; opacity: 1;" transform="translate(0,110.81)">2</text></g></g><g class="overaxes-above"/></g></g><g class="polarlayer"/><g class="ternarylayer"/><g class="geolayer"/><g class="funnelarealayer"/><g class="pielayer"/><g class="iciclelayer"/><g class="treemaplayer"/><g class="sunburstlayer"/><g class="glimages"/><defs id="topdefs-4c65c7"><g class="clips"/></defs><g class="layer-above"><g class="imagelayer"/><g class="shapelayer"/></g><g class="infolayer"><g class="g-gtitle"><text class="gtitle" x="250" y="40" text-anchor="middle" dy="0em" style="font-family: Arial; font-size: 12px; fill: rgb(42, 63, 95); opacity: 1; font-weight: normal; white-space: pre;"><tspan class="line" dy="0em" x="250" y="40"><tspan style="font-weight:bold">GHG Emissions vs. Revenue</tspan></tspan><tspan class="line" dy="1.3em" x="250" y="40">Sector: Healthcare</tspan></text></g><g class="g-xtitle"><text class="xtitle" x="251" y="285.4" text-anchor="middle" style="font-family: 'Open Sans', verdana, arial, sans-serif; font-size: 7px; fill: rgb(42, 63, 95); opacity: 1; font-weight: normal; white-space: pre;"><tspan style="font-style:italic">high</tspan>----------<tspan style="font-weight:bold">Scope1+2 Emissions</tspan>----------<tspan style="font-style:italic">low</tspan></text></g><g class="g-ytitle"><text class="ytitle" transform="rotate(-90,11.537500000000001,165)" x="11.537500000000001" y="165" text-anchor="middle" style="font-family: 'Open Sans', verdana, arial, sans-serif; font-size: 7px; fill: rgb(42, 63, 95); opacity: 1; font-weight: normal; white-space: pre;">Revenue</text></g></g></svg>