<svg class="main-svg" xmlns="http://www.w3.org/2000/svg" xmlns:xlink="http://www.w3.org/1999/xlink" width="1500" height="900" style="" viewBox="0 0 500 300"><rect x="0" y="0" width="500" height="300" style="fill: rgb(255, 255, 255); fill-opacity: 1;"/><defs id="defs-56594e"><g class="clips"><clipPath id="clip56594exyplot" class="plotclip"><rect width="398" height="170"/></clipPath><clipPath class="axesclip" id="clip56594ex"><rect x="52" y="0" width="398" height="300"/></clipPath><clipPath class="axesclip" id="clip56594ey"><rect x="0" y="80" width="500" height="170"/></clipPath><clipPath class="axesclip" id="clip56594exy"><rect x="52" y="80" width="398" height="170"/></clipPath></g><g class="gradients"/><g class="patterns"/></defs><g class="bglayer"/><g class="layer-below"><g class="imagelayer"/><g class="shapelayer"/></g><g class="cartesianlayer"><g class="subplot xy"><g class="layer-subplot"><g class="shapelayer"><path data-index="0" fill-rule="evenodd" d="M271.88,174.6H446.27V88.5H271.88Z" clip-path="url(#clip56594exy)" style="opacity: 0.2; stroke: rgb(255, 165, 0); stroke-opacity: 1; fill: rgb(0, 128, 0); fill-opacity: 1; stroke-dasharray: 3px, 3px; stroke-width: 0.5px;"/><path data-index="1" fill-rule="evenodd" d="M54.36,241.5H271.88V174.6H54.36Z" clip-path="url(#clip56594exy)" style="opacity: 0.2; stroke: rgb(255, 165, 0); stroke-opacity: 1; fill: rgb(255, 0, 0); fill-opacity: 1; stroke-dasharray: 3px, 3px; stroke-width: 0.5px;"/><path data-index="2" fill-rule="evenodd" d="M54.36,174.6H271.88V88.5H54.36Z" clip-path="url(#clip56594exy)" style="opacity: 0.2; stroke: rgb(255, 165, 0); stroke-opacity: 1; fill: rgb(255, 165, 0); fill-opacity: 1; stroke-dasharray: 3px, 3px; stroke-width: 0.5px;"/><path data-index="3" fill-rule="evenodd" d="M271.88,241.5H446.27V174.6H271.88Z" clip-path="url(#clip56594exy)" style="opacity: 0.2; stroke: rgb(255, 165, 0); stroke-opacity: 1; fill: rgb(255, 165, 0); fill-opacity: 1; stroke-dasharray: 3px, 3px; stroke-width: 0.5px;"/></g><g class="imagelayer"/></g><g class="gridlayer"><g class="x"><path class="xgrid crisp" transform="translate(108.06,0)" d="M0,80v170" style="stroke: rgb(255, 255, 255); stroke-opacity: 1; stroke-width: 1px;"/><path class="xgrid crisp" transform="translate(167.87,0)" d="M0,80v170" style="stroke: rgb(255, 255, 255); stroke-opacity: 1; stroke-width: 1px;"/><path class="xgrid crisp" transform="translate(227.68,0)" d="M0,80v170" style="stroke: rgb(255, 255, 255); stroke-opacity: 1; stroke-width: 1px;"/><path class="xgrid crisp" transform="translate(306.74,0)" d="M0,80v170" style="stroke: rgb(255, 255, 255); stroke-opacity: 1; stroke-width: 1px;"/><path class="xgrid crisp" transform="translate(366.55,0)" d="M0,80v170" style="stroke: rgb(255, 255, 255); stroke-opacity: 1; stroke-width: 1px;"/><path class="xgrid crisp" transform="translate(426.36,0)" d="M0,80v170" style="stroke: rgb(255, 255, 255); stroke-opacity: 1; stroke-width: 1px;"/></g><g class="y"><path class="ygrid crisp" transform="translate(0,232.38)" d="M52,0h398" style="stroke: rgb(255, 255, 255); stroke-opacity: 1; stroke-width: 1px;"/><path class="ygrid crisp" transform="translate(0,204.17000000000002)" d="M52,0h398" style="stroke: rgb(255, 255, 255); stroke-opacity: 1; stroke-width: 1px;"/><path class="ygrid crisp" transform="translate(0,166.87)" d="M52,0h398" style="stroke: rgb(255, 255, 255); stroke-opacity: 1; stroke-width: 1px;"/><path class="ygrid crisp" transform="translate(0,138.66)" d="M52,0h398" style="stroke: rgb(255, 255, 255); stroke-opacity: 1; stroke-width: 1px;"/><path class="ygrid crisp" transform="translate(0,110.44)" d="M52,0h398" style="stroke: rgb(255, 255, 255); stroke-opacity: 1; stroke-width: 1px;"/></g></g><g class="zerolinelayer"/><path class="xlines-below"/><path class="ylines-below"/><g class="overlines-below"/><g class="xaxislayer-below"/><g class="yaxislayer-below"/><g class="overaxes-below"/><g class="plot" transform="translate(52,80)" clip-path="url(#clip56594exyplot)"><g class="scatterlayer mlayer"><g class="trace scatter trace5d6dab" style="stroke-miterlimit: 2; opacity: 1;"><g class="fills"/><g class="errorbars"/><g class="lines"/><g class="points"><path class="point" transform="translate(241.34,92.82)" d="M6,0A6,6 0 1,1 0,-6A6,6 0 0,1 6,0Z" style="opacity: 0.4; stroke-width: 0px; fill: rgb(72, 143, 49); fill-opacity: 1;"/><path class="point" transform="translate(123.75,19.74)" d="M6,0A6,6 0 1,1 0,-6A6,6 0 0,1 6,0Z" style="opacity: 0.4; stroke-width: 0px; fill: rgb(72, 143, 49); fill-opacity: 1;"/><path class="point" transform="translate(243.21,85.35)" d="M6,0A6,6 0 1,1 0,-6A6,6 0 0,1 6,0Z" style="opacity: 0.4; stroke-width: 0px; fill: rgb(72, 143, 49); fill-opacity: 1;"/><path class="point" transform="translate(120.74,69.22)" d="M6,0A6,6 0 1,1 0,-6A6,6 0 0,1 6,0Z" style="opacity: 0.4; stroke-width: 0px; fill: rgb(72, 143, 49); fill-opacity: 1;"/><path class="point" transform="translate(27.4,72.08)" d="M6,0A6,6 0 1,1 0,-6A6,6 0 0,1 6,0Z" style="opacity: 0.4; stroke-width: 0px; fill: rgb(72, 143, 49); fill-opacity: 1;"/><path class="point" transform="translate(197.39,49.31)" d="M6,0A6,6 0 1,1 0,-6A6,6 0 0,1 6,0Z" style="opacity: 0.4; stroke-width: 0px; fill: rgb(72, 143, 49); fill-opacity: 1;"/><path class="point" transform="translate(346.88,145.92)" d="M6,0A6,6 0 1,1 0,-6A6,6 0 0,1 6,0Z" style="opacity: 0.4; stroke-width: 0px; fill: rgb(72, 143, 49); fill-opacity: 1;"/><path class="point" transform="translate(202.71,96.47)" d="M6,0A6,6 0 1,1 0,-6A6,6 0 0,1 6,0Z" style="opacity: 0.4; stroke-width: 0px; fill: rgb(72, 143, 49); fill-opacity: 1;"/><path class="point" transform="translate(258.11,116.29)" d="M6,0A6,6 0 1,1 0,-6A6,6 0 0,1 6,0Z" style="opacity: 0.4; stroke-width: 0px; fill: rgb(72, 143, 49); fill-opacity: 1;"/><path class="point" transform="translate(285.21,140.83)" d="M6,0A6,6 0 1,1 0,-6A6,6 0 0,1 6,0Z" style="opacity: 0.4; stroke-width: 0px; fill: rgb(72, 143, 49); fill-opacity: 1;"/><path class="point" transform="translate(117.61,137.77)" d="M6,0A6,6 0 1,1 0,-6A6,6 0 0,1 6,0Z" style="opacity: 0.4; stroke-width: 0px; fill: rgb(72, 143, 49); fill-opacity: 1;"/></g><g class="text"><g class="textpoint" transform="translate(0,-10)"><text x="241.34" y="92.82" text-anchor="middle" style="font-family: 'Open Sans', verdana, arial, sans-serif; font-size: 6px; fill: rgb(42, 63, 95); fill-opacity: 1; white-space: pre;">Accenture</text></g><g class="textpoint" transform="translate(0,-10)"><text x="123.75" y="19.74" text-anchor="middle" style="font-family: 'Open Sans', verdana, arial, sans-serif; font-size: 6px; fill: rgb(42, 63, 95); fill-opacity: 1; white-space: pre;">Apple Inc.</text></g><g class="textpoint" transform="translate(0,-10)"><text x="243.21" y="85.35" text-anchor="middle" style="font-family: 'Open Sans', verdana, arial, sans-serif; font-size: 6px; fill: rgb(42, 63, 95); fill-opacity: 1; white-space: pre;">Cisco Systems</text></g><g class="textpoint" transform="translate(0,-10)"><text x="120.74" y="69.22" text-anchor="middle" style="font-family: 'Open Sans', verdana, arial, sans-serif; font-size: 6px; fill: rgb(42, 63, 95); fill-opacity: 1; white-space: pre;">IBM Corp.</text></g><g class="textpoint" transform="translate(0,-10)"><text x="27.4" y="72.08" text-anchor="middle" style="font-family: 'Open Sans', verdana, arial, sans-serif; font-size: 6px; fill: rgb(42, 63, 95); fill-opacity: 1; white-space: pre;">Intel Corp.</text></g><g class="textpoint" transform="translate(0,-10)"><text x="197.39" y="49.31" text-anchor="middle" style="font-family: 'Open Sans', verdana, arial, sans-serif; font-size: 6px; fill: rgb(42, 63, 95); fill-opacity: 1; white-space: pre;">Microsoft Corp.</text></g><g class="textpoint" transform="translate(0,-10)"><text x="346.88" y="145.92" text-anchor="middle" style="font-family: 'Open Sans', verdana, arial, sans-serif; font-size: 6px; fill: rgb(42, 63, 95); fill-opacity: 1; white-space: pre;">Nvidia</text></g><g class="textpoint" transform="translate(0,-10)"><text x="202.71" y="96.47" text-anchor="middle" style="font-family: 'Open Sans', verdana, arial, sans-serif; font-size: 6px; fill: rgb(42, 63, 95); fill-opacity: 1; white-space: pre;">Oracle</text></g><g class="textpoint" transform="translate(0,-10)"><text x="258.11" y="116.29" text-anchor="middle" style="font-family: 'Open Sans', verdana, arial, sans-serif; font-size: 6px; fill: rgb(42, 63, 95); fill-opacity: 1; white-space: pre;">QUALCOMM Inc.</text></g><g class="textpoint" transform="translate(0,-10)"><text x="285.21" y="140.83" text-anchor="middle" style="font-family: 'Open Sans', verdana, arial, sans-serif; font-size: 6px; fill: rgb(42, 63, 95); fill-opacity: 1; white-space: pre;">Salesforce</text></g><g class="textpoint" transform="translate(0,-10)"><text x="117.61" y="137.77" text-anchor="middle" style="font-family: 'Open Sans', verdana, arial, sans-serif; font-size: 6px; fill: rgb(42, 63, 95); fill-opacity: 1; white-space: pre;">Texas Instruments</text></g></g></g><g class="trace scatter tracee72040" style="stroke-miterlimit: 2; opacity: 1;"><g class="fills"/><g class="errorbars"/><g class="lines"/><g class="points"><path class="point" transform="translate(365.6,147.87)" d="M10,0A10,10 0 1,1 0,-10A10,10 0 0,1 10,0Z" style="opacity: 1; stroke-width: 0px; fill: rgb(222, 66, 91); fill-opacity: 1;"/></g><g class="text"><g class="textpoint" transform="translate(0,-15)"><text x="365.6" y="147.87" text-anchor="middle" style="font-family: 'Open Sans', verdana, arial, sans-serif; font-size: 6px; fill: rgb(222, 66, 91); fill-opacity: 1; white-space: pre;">Adobe Inc.</text></g></g></g><g class="trace scatter traceeab8c5" style="stroke-miterlimit: 2; opacity: 1;"><g class="fills"/><g class="errorbars"/><g class="lines"><path class="js-line" d="M219.88,161.5L219.88,8.5" style="vector-effect: non-scaling-stroke; fill: none; stroke: rgb(128, 128, 128); stroke-opacity: 1; stroke-width: 5px; opacity: 1; stroke-dasharray: 15px, 15px;"/></g><g class="points"/><g class="text"/></g><g class="trace scatter tracebd79da" style="stroke-miterlimit: 2; opacity: 1;"><g class="fills"/><g class="errorbars"/><g class="lines"><path class="js-line" d="M2.36,94.6L394.27,94.6" style="vector-effect: non-scaling-stroke; fill: none; stroke: rgb(128, 128, 128); stroke-opacity: 1; stroke-width: 5px; opacity: 1; stroke-dasharray: 15px, 15px;"/></g><g class="points"/><g class="text"/></g></g></g><g class="overplot"/><path class="xlines-above crisp" d="M0,0" style="fill: none;"/><path class="ylines-above crisp" d="M0,0" style="fill: none;"/><g class="overlines-above"/><g class="xaxislayer-above"><g class="xtick"><text text-anchor="middle" x="0" y="259.5" transform="translate(108.06,0)" style="font-family: 'Open Sans', verdana, arial, sans-serif; font-size: 4.5px; fill: rgb(42, 63, 95); fill-opacity: 1; white-space: pre; opacity: 1;">2</text></g><g class="xtick"><text text-anchor="middle" x="0" y="261" style="font-family: 'Open Sans', verdana, arial, sans-serif; font-size: 6px; fill: rgb(42, 63, 95); fill-opacity: 1; white-space: pre; opacity: 1;" transform="translate(167.87,0)">1M</text></g><g class="xtick"><text text-anchor="middle" x="0" y="259.5" style="font-family: 'Open Sans', verdana, arial, sans-serif; font-size: 4.5px; fill: rgb(42, 63, 95); fill-opacity: 1; white-space: pre; opacity: 1;" transform="translate(227.68,0)">5</text></g><g class="xtick"><text text-anchor="middle" x="0" y="259.5" style="font-family: 'Open Sans', verdana, arial, sans-serif; font-size: 4.5px; fill: rgb(42, 63, 95); fill-opacity: 1; white-space: pre; opacity: 1;" transform="translate(306.74,0)">2</text></g><g class="xtick"><text text-anchor="middle" x="0" y="261" style="font-family: 'Open Sans', verdana, arial, sans-serif; font-size: 6px; fill: rgb(42, 63, 95); fill-opacity: 1; white-space: pre; opacity: 1;" transform="translate(366.55,0)">100k</text></g><g class="xtick"><text text-anchor="middle" x="0" y="259.5" style="font-family: 'Open Sans', verdana, arial, sans-serif; font-size: 4.5px; fill: rgb(42, 63, 95); fill-opacity: 1; white-space: pre; opacity: 1;" transform="translate(426.36,0)">5</text></g></g><g class="yaxislayer-above"><g class="ytick"><text text-anchor="end" x="47" y="2.0999999999999996" transform="translate(0,232.38)" style="font-family: 'Open Sans', verdana, arial, sans-serif; font-size: 6px; fill: rgb(42, 63, 95); fill-opacity: 1; white-space: pre; opacity: 1;">10B</text></g><g class="ytick"><text text-anchor="end" x="47" y="1.575" style="font-family: 'Open Sans', verdana, arial, sans-serif; font-size: 4.5px; fill: rgb(42, 63, 95); fill-opacity: 1; white-space: pre; opacity: 1;" transform="translate(0,204.17000000000002)">2</text></g><g class="ytick"><text text-anchor="end" x="47" y="1.575" style="font-family: 'Open Sans', verdana, arial, sans-serif; font-size: 4.5px; fill: rgb(42, 63, 95); fill-opacity: 1; white-space: pre; opacity: 1;" transform="translate(0,166.87)">5</text></g><g class="ytick"><text text-anchor="end" x="47" y="2.0999999999999996" style="font-family: 'Open Sans', verdana, arial, sans-serif; font-size: 6px; fill: rgb(42, 63, 95); fill-opacity: 1; white-space: pre; opacity: 1;" transform="translate(0,138.66)">100B</text></g><g class="ytick"><text text-anchor="end" x="47" y="1.575" style="font-family: 'Open Sans', verdana, arial, sans-serif; font-size: 4.5px; fill: rgb(42, 63, 95); fill-opacity: 1; white-space: pre; opacity: 1;" transform="translate(0,110.44)">2</text></g></g><g class="overaxes-above"/></g></g><g class="polarlayer"/><g class="ternarylayer"/><g class="geolayer"/><g class="funnelarealayer"/><g class="pielayer"/><g class="iciclelayer"/><g class="treemaplayer"/><g class="sunburstlayer"/><g class="glimages"/><defs id="topdefs-56594e"><g class="clips"/></defs><g class="layer-above"><g class="imagelayer"/><g class="shapelayer"/></g><g class="infolayer"><g class="g-gtitle"><text class="gtitle" x="250" y="40" text-anchor="middle" dy="0em" style="font-family: Arial; font-size: 12px; fill: rgb(42, 63, 95); opacity: 1; font-weight: normal; white-space: pre;"><tspan class="line" dy="0em" x="250" y="40"><tspan style="font-weight:bold">GHG Emissions vs. Revenue</tspan></tspan><tspan class="line" dy="1.3em" x="250" y="40">Sector: Technology</tspan></text></g><g class="g-xtitle"><text class="xtitle" x="251" y="282.4" text-anchor="middle" style="font-family: 'Open Sans', verdana, arial, sans-serif; font-size: 7px; fill: rgb(42, 63, 95); opacity: 1; font-weight: normal; white-space: pre;"><tspan style="font-style:italic">high</tspan>----------<tspan style="font-weight:bold">Scope1+2 Emissions</tspan>----------<tspan style="font-style:italic">low</tspan></text></g><g class="g-ytitle"><text class="ytitle" transform="rotate(-90,11.537500000000001,165)" x="11.537500000000001" y="165" text-anchor="middle" style="font-family: 'Open Sans', verdana, arial, sans-serif; font-size: 7px; fill: rgb(42, 63, 95); opacity: 1; font-weight: normal; white-space: pre;">Revenue</text></g></g></svg>