<svg class="main-svg" xmlns="http://www.w3.org/2000/svg" xmlns:xlink="http://www.w3.org/1999/xlink" width="1500" height="900" style="" viewBox="0 0 500 300"><rect x="0" y="0" width="500" height="300" style="fill: rgb(255, 255, 255); fill-opacity: 1;"/><defs id="defs-d1cbfb"><g class="clips"><clipPath id="clipd1cbfbxyplot" class="plotclip"><rect width="398" height="170"/></clipPath><clipPath class="axesclip" id="clipd1cbfbx"><rect x="52" y="0" width="398" height="300"/></clipPath><clipPath class="axesclip" id="clipd1cbfby"><rect x="0" y="80" width="500" height="170"/></clipPath><clipPath class="axesclip" id="clipd1cbfbxy"><rect x="52" y="80" width="398" height="170"/></clipPath></g><g class="gradients"/><g class="patterns"/></defs><g class="bglayer"/><g class="layer-below"><g class="imagelayer"/><g class="shapelayer"/></g><g class="cartesianlayer"><g class="subplot xy"><g class="layer-subplot"><g class="shapelayer"><path data-index="0" fill-rule="evenodd" d="M276.88,176H447.64V88.5H276.88Z" clip-path="url(#clipd1cbfbxy)" style="opacity: 0.2; stroke: rgb(255, 165, 0); stroke-opacity: 1; fill: rgb(0, 128, 0); fill-opacity: 1; stroke-dasharray: 3px, 3px; stroke-width: 0.5px;"/><path data-index="1" fill-rule="evenodd" d="M55.73,241.5H276.88V176H55.73Z" clip-path="url(#clipd1cbfbxy)" style="opacity: 0.2; stroke: rgb(255, 165, 0); stroke-opacity: 1; fill: rgb(255, 0, 0); fill-opacity: 1; stroke-dasharray: 3px, 3px; stroke-width: 0.5px;"/><path data-index="2" fill-rule="evenodd" d="M55.73,176H276.88V88.5H55.73Z" clip-path="url(#clipd1cbfbxy)" style="opacity: 0.2; stroke: rgb(255, 165, 0); stroke-opacity: 1; fill: rgb(255, 165, 0); fill-opacity: 1; stroke-dasharray: 3px, 3px; stroke-width: 0.5px;"/><path data-index="3" fill-rule="evenodd" d="M276.88,241.5H447.64V176H276.88Z" clip-path="url(#clipd1cbfbxy)" style="opacity: 0.2; stroke: rgb(255, 165, 0); stroke-opacity: 1; fill: rgb(255, 165, 0); fill-opacity: 1; stroke-dasharray: 3px, 3px; stroke-width: 0.5px;"/></g><g class="imagelayer"/></g><g class="gridlayer"><g class="x"><path class="xgrid crisp" transform="translate(113.06,0)" d="M0,80v170" style="stroke: rgb(255, 255, 255); stroke-opacity: 1; stroke-width: 1px;"/><path class="xgrid crisp" transform="translate(172.87,0)" d="M0,80v170" style="stroke: rgb(255, 255, 255); stroke-opacity: 1; stroke-width: 1px;"/><path class="xgrid crisp" transform="translate(232.68,0)" d="M0,80v170" style="stroke: rgb(255, 255, 255); stroke-opacity: 1; stroke-width: 1px;"/><path class="xgrid crisp" transform="translate(311.74,0)" d="M0,80v170" style="stroke: rgb(255, 255, 255); stroke-opacity: 1; stroke-width: 1px;"/><path class="xgrid crisp" transform="translate(371.55,0)" d="M0,80v170" style="stroke: rgb(255, 255, 255); stroke-opacity: 1; stroke-width: 1px;"/><path class="xgrid crisp" transform="translate(431.36,0)" d="M0,80v170" style="stroke: rgb(255, 255, 255); stroke-opacity: 1; stroke-width: 1px;"/></g><g class="y"><path class="ygrid crisp" transform="translate(0,234.86)" d="M52,0h398" style="stroke: rgb(255, 255, 255); stroke-opacity: 1; stroke-width: 1px;"/><path class="ygrid crisp" transform="translate(0,206.12)" d="M52,0h398" style="stroke: rgb(255, 255, 255); stroke-opacity: 1; stroke-width: 1px;"/><path class="ygrid crisp" transform="translate(0,168.12)" d="M52,0h398" style="stroke: rgb(255, 255, 255); stroke-opacity: 1; stroke-width: 1px;"/><path class="ygrid crisp" transform="translate(0,139.38)" d="M52,0h398" style="stroke: rgb(255, 255, 255); stroke-opacity: 1; stroke-width: 1px;"/><path class="ygrid crisp" transform="translate(0,110.64)" d="M52,0h398" style="stroke: rgb(255, 255, 255); stroke-opacity: 1; stroke-width: 1px;"/></g></g><g class="zerolinelayer"/><path class="xlines-below"/><path class="ylines-below"/><g class="overlines-below"/><g class="xaxislayer-below"/><g class="yaxislayer-below"/><g class="overaxes-below"/><g class="plot" transform="translate(52,80)" clip-path="url(#clipd1cbfbxyplot)"><g class="scatterlayer mlayer"><g class="trace scatter trace726bd4" style="stroke-miterlimit: 2; opacity: 1;"><g class="fills"/><g class="errorbars"/><g class="lines"/><g class="points"><path class="point" transform="translate(246.34,94.18)" d="M6,0A6,6 0 1,1 0,-6A6,6 0 0,1 6,0Z" style="opacity: 0.4; stroke-width: 0px; fill: rgb(72, 143, 49); fill-opacity: 1;"/><path class="point" transform="translate(370.6,150.26)" d="M6,0A6,6 0 1,1 0,-6A6,6 0 0,1 6,0Z" style="opacity: 0.4; stroke-width: 0px; fill: rgb(72, 143, 49); fill-opacity: 1;"/><path class="point" transform="translate(128.75,19.74)" d="M6,0A6,6 0 1,1 0,-6A6,6 0 0,1 6,0Z" style="opacity: 0.4; stroke-width: 0px; fill: rgb(72, 143, 49); fill-opacity: 1;"/><path class="point" transform="translate(248.21,86.58)" d="M6,0A6,6 0 1,1 0,-6A6,6 0 0,1 6,0Z" style="opacity: 0.4; stroke-width: 0px; fill: rgb(72, 143, 49); fill-opacity: 1;"/><path class="point" transform="translate(125.74,70.14)" d="M6,0A6,6 0 1,1 0,-6A6,6 0 0,1 6,0Z" style="opacity: 0.4; stroke-width: 0px; fill: rgb(72, 143, 49); fill-opacity: 1;"/><path class="point" transform="translate(202.39,49.87)" d="M6,0A6,6 0 1,1 0,-6A6,6 0 0,1 6,0Z" style="opacity: 0.4; stroke-width: 0px; fill: rgb(72, 143, 49); fill-opacity: 1;"/><path class="point" transform="translate(351.88,148.27)" d="M6,0A6,6 0 1,1 0,-6A6,6 0 0,1 6,0Z" style="opacity: 0.4; stroke-width: 0px; fill: rgb(72, 143, 49); fill-opacity: 1;"/><path class="point" transform="translate(207.71,97.9)" d="M6,0A6,6 0 1,1 0,-6A6,6 0 0,1 6,0Z" style="opacity: 0.4; stroke-width: 0px; fill: rgb(72, 143, 49); fill-opacity: 1;"/><path class="point" transform="translate(263.11,118.09)" d="M6,0A6,6 0 1,1 0,-6A6,6 0 0,1 6,0Z" style="opacity: 0.4; stroke-width: 0px; fill: rgb(72, 143, 49); fill-opacity: 1;"/><path class="point" transform="translate(290.21,143.09)" d="M6,0A6,6 0 1,1 0,-6A6,6 0 0,1 6,0Z" style="opacity: 0.4; stroke-width: 0px; fill: rgb(72, 143, 49); fill-opacity: 1;"/><path class="point" transform="translate(122.61,139.97)" d="M6,0A6,6 0 1,1 0,-6A6,6 0 0,1 6,0Z" style="opacity: 0.4; stroke-width: 0px; fill: rgb(72, 143, 49); fill-opacity: 1;"/></g><g class="text"><g class="textpoint" transform="translate(0,-10)"><text x="246.34" y="94.18" text-anchor="middle" style="font-family: 'Open Sans', verdana, arial, sans-serif; font-size: 6px; fill: rgb(42, 63, 95); fill-opacity: 1; white-space: pre;">Accenture</text></g><g class="textpoint" transform="translate(0,-10)"><text x="370.6" y="150.26" text-anchor="middle" style="font-family: 'Open Sans', verdana, arial, sans-serif; font-size: 6px; fill: rgb(42, 63, 95); fill-opacity: 1; white-space: pre;">Adobe Inc.</text></g><g class="textpoint" transform="translate(0,-10)"><text x="128.75" y="19.74" text-anchor="middle" style="font-family: 'Open Sans', verdana, arial, sans-serif; font-size: 6px; fill: rgb(42, 63, 95); fill-opacity: 1; white-space: pre;">Apple Inc.</text></g><g class="textpoint" transform="translate(0,-10)"><text x="248.21" y="86.58" text-anchor="middle" style="font-family: 'Open Sans', verdana, arial, sans-serif; font-size: 6px; fill: rgb(42, 63, 95); fill-opacity: 1; white-space: pre;">Cisco Systems</text></g><g class="textpoint" transform="translate(0,-10)"><text x="125.74" y="70.14" text-anchor="middle" style="font-family: 'Open Sans', verdana, arial, sans-serif; font-size: 6px; fill: rgb(42, 63, 95); fill-opacity: 1; white-space: pre;">IBM Corp.</text></g><g class="textpoint" transform="translate(0,-10)"><text x="202.39" y="49.87" text-anchor="middle" style="font-family: 'Open Sans', verdana, arial, sans-serif; font-size: 6px; fill: rgb(42, 63, 95); fill-opacity: 1; white-space: pre;">Microsoft Corp.</text></g><g class="textpoint" transform="translate(0,-10)"><text x="351.88" y="148.27" text-anchor="middle" style="font-family: 'Open Sans', verdana, arial, sans-serif; font-size: 6px; fill: rgb(42, 63, 95); fill-opacity: 1; white-space: pre;">Nvidia</text></g><g class="textpoint" transform="translate(0,-10)"><text x="207.71" y="97.9" text-anchor="middle" style="font-family: 'Open Sans', verdana, arial, sans-serif; font-size: 6px; fill: rgb(42, 63, 95); fill-opacity: 1; white-space: pre;">Oracle</text></g><g class="textpoint" transform="translate(0,-10)"><text x="263.11" y="118.09" text-anchor="middle" style="font-family: 'Open Sans', verdana, arial, sans-serif; font-size: 6px; fill: rgb(42, 63, 95); fill-opacity: 1; white-space: pre;">QUALCOMM Inc.</text></g><g class="textpoint" transform="translate(0,-10)"><text x="290.21" y="143.09" text-anchor="middle" style="font-family: 'Open Sans', verdana, arial, sans-serif; font-size: 6px; fill: rgb(42, 63, 95); fill-opacity: 1; white-space: pre;">Salesforce</text></g><g class="textpoint" transform="translate(0,-10)"><text x="122.61" y="139.97" text-anchor="middle" style="font-family: 'Open Sans', verdana, arial, sans-serif; font-size: 6px; fill: rgb(42, 63, 95); fill-opacity: 1; white-space: pre;">Texas Instruments</text></g></g></g><g class="trace scatter tracefde886" style="stroke-miterlimit: 2; opacity: 1;"><g class="fills"/><g class="errorbars"/><g class="lines"/><g class="points"><path class="point" transform="translate(32.4,73.06)" d="M10,0A10,10 0 1,1 0,-10A10,10 0 0,1 10,0Z" style="opacity: 1; stroke-width: 0px; fill: rgb(222, 66, 91); fill-opacity: 1;"/></g><g class="text"><g class="textpoint" transform="translate(0,-15)"><text x="32.4" y="73.06" text-anchor="middle" style="font-family: 'Open Sans', verdana, arial, sans-serif; font-size: 6px; fill: rgb(222, 66, 91); fill-opacity: 1; white-space: pre;">Intel Corp.</text></g></g></g><g class="trace scatter trace0396aa" style="stroke-miterlimit: 2; opacity: 1;"><g class="fills"/><g class="errorbars"/><g class="lines"><path class="js-line" d="M224.88,161.5L224.88,8.5" style="vector-effect: non-scaling-stroke; fill: none; stroke: rgb(128, 128, 128); stroke-opacity: 1; stroke-width: 5px; opacity: 1; stroke-dasharray: 15px, 15px;"/></g><g class="points"/><g class="text"/></g><g class="trace scatter trace8d1160" style="stroke-miterlimit: 2; opacity: 1;"><g class="fills"/><g class="errorbars"/><g class="lines"><path class="js-line" d="M3.73,96L395.64,96" style="vector-effect: non-scaling-stroke; fill: none; stroke: rgb(128, 128, 128); stroke-opacity: 1; stroke-width: 5px; opacity: 1; stroke-dasharray: 15px, 15px;"/></g><g class="points"/><g class="text"/></g></g></g><g class="overplot"/><path class="xlines-above crisp" d="M0,0" style="fill: none;"/><path class="ylines-above crisp" d="M0,0" style="fill: none;"/><g class="overlines-above"/><g class="xaxislayer-above"><g class="xtick"><text text-anchor="middle" x="0" y="259.5" transform="translate(113.06,0)" style="font-family: 'Open Sans', verdana, arial, sans-serif; font-size: 4.5px; fill: rgb(42, 63, 95); fill-opacity: 1; white-space: pre; opacity: 1;">2</text></g><g class="xtick"><text text-anchor="middle" x="0" y="261" style="font-family: 'Open Sans', verdana, arial, sans-serif; font-size: 6px; fill: rgb(42, 63, 95); fill-opacity: 1; white-space: pre; opacity: 1;" transform="translate(172.87,0)">1M</text></g><g class="xtick"><text text-anchor="middle" x="0" y="259.5" style="font-family: 'Open Sans', verdana, arial, sans-serif; font-size: 4.5px; fill: rgb(42, 63, 95); fill-opacity: 1; white-space: pre; opacity: 1;" transform="translate(232.68,0)">5</text></g><g class="xtick"><text text-anchor="middle" x="0" y="259.5" style="font-family: 'Open Sans', verdana, arial, sans-serif; font-size: 4.5px; fill: rgb(42, 63, 95); fill-opacity: 1; white-space: pre; opacity: 1;" transform="translate(311.74,0)">2</text></g><g class="xtick"><text text-anchor="middle" x="0" y="261" style="font-family: 'Open Sans', verdana, arial, sans-serif; font-size: 6px; fill: rgb(42, 63, 95); fill-opacity: 1; white-space: pre; opacity: 1;" transform="translate(371.55,0)">100k</text></g><g class="xtick"><text text-anchor="middle" x="0" y="259.5" style="font-family: 'Open Sans', verdana, arial, sans-serif; font-size: 4.5px; fill: rgb(42, 63, 95); fill-opacity: 1; white-space: pre; opacity: 1;" transform="translate(431.36,0)">5</text></g></g><g class="yaxislayer-above"><g class="ytick"><text text-anchor="end" x="47" y="2.0999999999999996" transform="translate(0,234.86)" style="font-family: 'Open Sans', verdana, arial, sans-serif; font-size: 6px; fill: rgb(42, 63, 95); fill-opacity: 1; white-space: pre; opacity: 1;">10B</text></g><g class="ytick"><text text-anchor="end" x="47" y="1.575" style="font-family: 'Open Sans', verdana, arial, sans-serif; font-size: 4.5px; fill: rgb(42, 63, 95); fill-opacity: 1; white-space: pre; opacity: 1;" transform="translate(0,206.12)">2</text></g><g class="ytick"><text text-anchor="end" x="47" y="1.575" style="font-family: 'Open Sans', verdana, arial, sans-serif; font-size: 4.5px; fill: rgb(42, 63, 95); fill-opacity: 1; white-space: pre; opacity: 1;" transform="translate(0,168.12)">5</text></g><g class="ytick"><text text-anchor="end" x="47" y="2.0999999999999996" style="font-family: 'Open Sans', verdana, arial, sans-serif; font-size: 6px; fill: rgb(42, 63, 95); fill-opacity: 1; white-space: pre; opacity: 1;" transform="translate(0,139.38)">100B</text></g><g class="ytick"><text text-anchor="end" x="47" y="1.575" style="font-family: 'Open Sans', verdana, arial, sans-serif; font-size: 4.5px; fill: rgb(42, 63, 95); fill-opacity: 1; white-space: pre; opacity: 1;" transform="translate(0,110.64)">2</text></g></g><g class="overaxes-above"/></g></g><g class="polarlayer"/><g class="ternarylayer"/><g class="geolayer"/><g class="funnelarealayer"/><g class="pielayer"/><g class="iciclelayer"/><g class="treemaplayer"/><g class="sunburstlayer"/><g class="glimages"/><defs id="topdefs-d1cbfb"><g class="clips"/></defs><g class="layer-above"><g class="imagelayer"/><g class="shapelayer"/></g><g class="infolayer"><g class="g-gtitle"><text class="gtitle" x="250" y="40" text-anchor="middle" dy="0em" style="font-family: Arial; font-size: 12px; fill: rgb(42, 63, 95); opacity: 1; font-weight: normal; white-space: pre;"><tspan class="line" dy="0em" x="250" y="40"><tspan style="font-weight:bold">GHG Emissions vs. Revenue</tspan></tspan><tspan class="line" dy="1.3em" x="250" y="40">Sector: Technology</tspan></text></g><g class="g-xtitle"><text class="xtitle" x="251" y="282.4" text-anchor="middle" style="font-family: 'Open Sans', verdana, arial, sans-serif; font-size: 7px; fill: rgb(42, 63, 95); opacity: 1; font-weight: normal; white-space: pre;"><tspan style="font-style:italic">high</tspan>----------<tspan style="font-weight:bold">Scope1+2 Emissions</tspan>----------<tspan style="font-style:italic">low</tspan></text></g><g class="g-ytitle"><text class="ytitle" transform="rotate(-90,11.537500000000001,165)" x="11.537500000000001" y="165" text-anchor="middle" style="font-family: 'Open Sans', verdana, arial, sans-serif; font-size: 7px; fill: rgb(42, 63, 95); opacity: 1; font-weight: normal; white-space: pre;">Revenue</text></g></g></svg>