<svg class="main-svg" xmlns="http://www.w3.org/2000/svg" xmlns:xlink="http://www.w3.org/1999/xlink" width="1500" height="900" style="" viewBox="0 0 500 300"><rect x="0" y="0" width="500" height="300" style="fill: rgb(255, 255, 255); fill-opacity: 1;"/><defs id="defs-dcdf69"><g class="clips"><clipPath id="clipdcdf69xyplot" class="plotclip"><rect width="398" height="170"/></clipPath><clipPath class="axesclip" id="clipdcdf69x"><rect x="52" y="0" width="398" height="300"/></clipPath><clipPath class="axesclip" id="clipdcdf69y"><rect x="0" y="80" width="500" height="170"/></clipPath><clipPath class="axesclip" id="clipdcdf69xy"><rect x="52" y="80" width="398" height="170"/></clipPath></g><g class="gradients"/><g class="patterns"/></defs><g class="bglayer"/><g class="layer-below"><g class="imagelayer"/><g class="shapelayer"/></g><g class="cartesianlayer"><g class="subplot xy"><g class="layer-subplot"><g class="shapelayer"><path data-index="0" fill-rule="evenodd" d="M191.89,191.22H447.74V88.5H191.89Z" clip-path="url(#clipdcdf69xy)" style="opacity: 0.2; stroke: rgb(255, 165, 0); stroke-opacity: 1; fill: rgb(0, 128, 0); fill-opacity: 1; stroke-dasharray: 3px, 3px; stroke-width: 0.5px;"/><path data-index="1" fill-rule="evenodd" d="M54.26,241.5H191.89V191.22H54.26Z" clip-path="url(#clipdcdf69xy)" style="opacity: 0.2; stroke: rgb(255, 165, 0); stroke-opacity: 1; fill: rgb(255, 0, 0); fill-opacity: 1; stroke-dasharray: 3px, 3px; stroke-width: 0.5px;"/><path data-index="2" fill-rule="evenodd" d="M54.26,191.22H191.89V88.5H54.26Z" clip-path="url(#clipdcdf69xy)" style="opacity: 0.2; stroke: rgb(255, 165, 0); stroke-opacity: 1; fill: rgb(255, 165, 0); fill-opacity: 1; stroke-dasharray: 3px, 3px; stroke-width: 0.5px;"/><path data-index="3" fill-rule="evenodd" d="M191.89,241.5H447.74V191.22H191.89Z" clip-path="url(#clipdcdf69xy)" style="opacity: 0.2; stroke: rgb(255, 165, 0); stroke-opacity: 1; fill: rgb(255, 165, 0); fill-opacity: 1; stroke-dasharray: 3px, 3px; stroke-width: 0.5px;"/></g><g class="imagelayer"/></g><g class="gridlayer"><g class="x"><path class="xgrid crisp" transform="translate(79.2,0)" d="M0,80v170" style="stroke: rgb(255, 255, 255); stroke-opacity: 1; stroke-width: 1px;"/><path class="xgrid crisp" transform="translate(149.32999999999998,0)" d="M0,80v170" style="stroke: rgb(255, 255, 255); stroke-opacity: 1; stroke-width: 1px;"/><path class="xgrid crisp" transform="translate(159.99,0)" d="M0,80v170" style="stroke: rgb(255, 255, 255); stroke-opacity: 1; stroke-width: 1px;"/><path class="xgrid crisp" transform="translate(171.9,0)" d="M0,80v170" style="stroke: rgb(255, 255, 255); stroke-opacity: 1; stroke-width: 1px;"/><path class="xgrid crisp" transform="translate(185.41,0)" d="M0,80v170" style="stroke: rgb(255, 255, 255); stroke-opacity: 1; stroke-width: 1px;"/><path class="xgrid crisp" transform="translate(201.01,0)" d="M0,80v170" style="stroke: rgb(255, 255, 255); stroke-opacity: 1; stroke-width: 1px;"/><path class="xgrid crisp" transform="translate(219.45,0)" d="M0,80v170" style="stroke: rgb(255, 255, 255); stroke-opacity: 1; stroke-width: 1px;"/><path class="xgrid crisp" transform="translate(242.03,0)" d="M0,80v170" style="stroke: rgb(255, 255, 255); stroke-opacity: 1; stroke-width: 1px;"/><path class="xgrid crisp" transform="translate(271.14,0)" d="M0,80v170" style="stroke: rgb(255, 255, 255); stroke-opacity: 1; stroke-width: 1px;"/><path class="xgrid crisp" transform="translate(312.16,0)" d="M0,80v170" style="stroke: rgb(255, 255, 255); stroke-opacity: 1; stroke-width: 1px;"/><path class="xgrid crisp" transform="translate(382.29,0)" d="M0,80v170" style="stroke: rgb(255, 255, 255); stroke-opacity: 1; stroke-width: 1px;"/><path class="xgrid crisp" transform="translate(392.95,0)" d="M0,80v170" style="stroke: rgb(255, 255, 255); stroke-opacity: 1; stroke-width: 1px;"/><path class="xgrid crisp" transform="translate(404.87,0)" d="M0,80v170" style="stroke: rgb(255, 255, 255); stroke-opacity: 1; stroke-width: 1px;"/><path class="xgrid crisp" transform="translate(418.37,0)" d="M0,80v170" style="stroke: rgb(255, 255, 255); stroke-opacity: 1; stroke-width: 1px;"/><path class="xgrid crisp" transform="translate(433.97,0)" d="M0,80v170" style="stroke: rgb(255, 255, 255); stroke-opacity: 1; stroke-width: 1px;"/></g><g class="y"><path class="ygrid crisp" transform="translate(0,243.56)" d="M52,0h398" style="stroke: rgb(255, 255, 255); stroke-opacity: 1; stroke-width: 1px;"/><path class="ygrid crisp" transform="translate(0,212.85)" d="M52,0h398" style="stroke: rgb(255, 255, 255); stroke-opacity: 1; stroke-width: 1px;"/><path class="ygrid crisp" transform="translate(0,172.24)" d="M52,0h398" style="stroke: rgb(255, 255, 255); stroke-opacity: 1; stroke-width: 1px;"/><path class="ygrid crisp" transform="translate(0,141.53)" d="M52,0h398" style="stroke: rgb(255, 255, 255); stroke-opacity: 1; stroke-width: 1px;"/><path class="ygrid crisp" transform="translate(0,110.81)" d="M52,0h398" style="stroke: rgb(255, 255, 255); stroke-opacity: 1; stroke-width: 1px;"/></g></g><g class="zerolinelayer"/><path class="xlines-below"/><path class="ylines-below"/><g class="overlines-below"/><g class="xaxislayer-below"/><g class="yaxislayer-below"/><g class="overaxes-below"/><g class="plot" transform="translate(52,80)" clip-path="url(#clipdcdf69xyplot)"><g class="scatterlayer mlayer"><g class="trace scatter traceb5b1d9" style="stroke-miterlimit: 2; opacity: 1;"><g class="fills"/><g class="errorbars"/><g class="lines"/><g class="points"><path class="point" transform="translate(100.2,112.15)" d="M6,0A6,6 0 1,1 0,-6A6,6 0 0,1 6,0Z" style="opacity: 0.4; stroke-width: 0px; fill: rgb(72, 143, 49); fill-opacity: 1;"/><path class="point" transform="translate(155.23,110.3)" d="M6,0A6,6 0 1,1 0,-6A6,6 0 0,1 6,0Z" style="opacity: 0.4; stroke-width: 0px; fill: rgb(72, 143, 49); fill-opacity: 1;"/><path class="point" transform="translate(220.39,125.89)" d="M6,0A6,6 0 1,1 0,-6A6,6 0 0,1 6,0Z" style="opacity: 0.4; stroke-width: 0px; fill: rgb(72, 143, 49); fill-opacity: 1;"/><path class="point" transform="translate(370.6,150.26)" d="M6,0A6,6 0 1,1 0,-6A6,6 0 0,1 6,0Z" style="opacity: 0.4; stroke-width: 0px; fill: rgb(72, 143, 49); fill-opacity: 1;"/><path class="point" transform="translate(219.02,120.97)" d="M6,0A6,6 0 1,1 0,-6A6,6 0 0,1 6,0Z" style="opacity: 0.4; stroke-width: 0px; fill: rgb(72, 143, 49); fill-opacity: 1;"/><path class="point" transform="translate(80.42,19.74)" d="M6,0A6,6 0 1,1 0,-6A6,6 0 0,1 6,0Z" style="opacity: 0.4; stroke-width: 0px; fill: rgb(72, 143, 49); fill-opacity: 1;"/><path class="point" transform="translate(126.58,127.98)" d="M6,0A6,6 0 1,1 0,-6A6,6 0 0,1 6,0Z" style="opacity: 0.4; stroke-width: 0px; fill: rgb(72, 143, 49); fill-opacity: 1;"/><path class="point" transform="translate(361.12,127.73)" d="M6,0A6,6 0 1,1 0,-6A6,6 0 0,1 6,0Z" style="opacity: 0.4; stroke-width: 0px; fill: rgb(72, 143, 49); fill-opacity: 1;"/><path class="point" transform="translate(104.27,70.29)" d="M6,0A6,6 0 1,1 0,-6A6,6 0 0,1 6,0Z" style="opacity: 0.4; stroke-width: 0px; fill: rgb(72, 143, 49); fill-opacity: 1;"/><path class="point" transform="translate(225.92,114.06)" d="M6,0A6,6 0 1,1 0,-6A6,6 0 0,1 6,0Z" style="opacity: 0.4; stroke-width: 0px; fill: rgb(72, 143, 49); fill-opacity: 1;"/><path class="point" transform="translate(90.29,99.66)" d="M6,0A6,6 0 1,1 0,-6A6,6 0 0,1 6,0Z" style="opacity: 0.4; stroke-width: 0px; fill: rgb(72, 143, 49); fill-opacity: 1;"/><path class="point" transform="translate(65.56,90.72)" d="M6,0A6,6 0 1,1 0,-6A6,6 0 0,1 6,0Z" style="opacity: 0.4; stroke-width: 0px; fill: rgb(72, 143, 49); fill-opacity: 1;"/><path class="point" transform="translate(278.33,22.33)" d="M6,0A6,6 0 1,1 0,-6A6,6 0 0,1 6,0Z" style="opacity: 0.4; stroke-width: 0px; fill: rgb(72, 143, 49); fill-opacity: 1;"/><path class="point" transform="translate(27.4,47.61)" d="M6,0A6,6 0 1,1 0,-6A6,6 0 0,1 6,0Z" style="opacity: 0.4; stroke-width: 0px; fill: rgb(72, 143, 49); fill-opacity: 1;"/></g><g class="text"><g class="textpoint" transform="translate(0,-10)"><text x="100.2" y="112.15" text-anchor="middle" style="font-family: 'Open Sans', verdana, arial, sans-serif; font-size: 6px; fill: rgb(42, 63, 95); fill-opacity: 1; white-space: pre;">Abbott Laboratories</text></g><g class="textpoint" transform="translate(0,-10)"><text x="155.23" y="110.3" text-anchor="middle" style="font-family: 'Open Sans', verdana, arial, sans-serif; font-size: 6px; fill: rgb(42, 63, 95); fill-opacity: 1; white-space: pre;">AbbVie Inc.</text></g><g class="textpoint" transform="translate(0,-10)"><text x="220.39" y="125.89" text-anchor="middle" style="font-family: 'Open Sans', verdana, arial, sans-serif; font-size: 6px; fill: rgb(42, 63, 95); fill-opacity: 1; white-space: pre;">Amgen Inc.</text></g><g class="textpoint" transform="translate(0,-10)"><text x="370.6" y="150.26" text-anchor="middle" style="font-family: 'Open Sans', verdana, arial, sans-serif; font-size: 6px; fill: rgb(42, 63, 95); fill-opacity: 1; white-space: pre;">Biogen Inc.</text></g><g class="textpoint" transform="translate(0,-10)"><text x="219.02" y="120.97" text-anchor="middle" style="font-family: 'Open Sans', verdana, arial, sans-serif; font-size: 6px; fill: rgb(42, 63, 95); fill-opacity: 1; white-space: pre;">Bristol Myers Squibb</text></g><g class="textpoint" transform="translate(0,-10)"><text x="80.42" y="19.74" text-anchor="middle" style="font-family: 'Open Sans', verdana, arial, sans-serif; font-size: 6px; fill: rgb(42, 63, 95); fill-opacity: 1; white-space: pre;">CVS Health</text></g><g class="textpoint" transform="translate(0,-10)"><text x="126.58" y="127.98" text-anchor="middle" style="font-family: 'Open Sans', verdana, arial, sans-serif; font-size: 6px; fill: rgb(42, 63, 95); fill-opacity: 1; white-space: pre;">Eli Lilly</text></g><g class="textpoint" transform="translate(0,-10)"><text x="361.12" y="127.73" text-anchor="middle" style="font-family: 'Open Sans', verdana, arial, sans-serif; font-size: 6px; fill: rgb(42, 63, 95); fill-opacity: 1; white-space: pre;">Gilead Sciences Inc.</text></g><g class="textpoint" transform="translate(0,-10)"><text x="104.27" y="70.29" text-anchor="middle" style="font-family: 'Open Sans', verdana, arial, sans-serif; font-size: 6px; fill: rgb(42, 63, 95); fill-opacity: 1; white-space: pre;">Johnson &amp; Johnson</text></g><g class="textpoint" transform="translate(0,-10)"><text x="225.92" y="114.06" text-anchor="middle" style="font-family: 'Open Sans', verdana, arial, sans-serif; font-size: 6px; fill: rgb(42, 63, 95); fill-opacity: 1; white-space: pre;">Medtronic</text></g><g class="textpoint" transform="translate(0,-10)"><text x="90.29" y="99.66" text-anchor="middle" style="font-family: 'Open Sans', verdana, arial, sans-serif; font-size: 6px; fill: rgb(42, 63, 95); fill-opacity: 1; white-space: pre;">Merck &amp; Co.</text></g><g class="textpoint" transform="translate(0,-10)"><text x="65.56" y="90.72" text-anchor="middle" style="font-family: 'Open Sans', verdana, arial, sans-serif; font-size: 6px; fill: rgb(42, 63, 95); fill-opacity: 1; white-space: pre;">Pfizer Inc.</text></g><g class="textpoint" transform="translate(0,-10)"><text x="278.33" y="22.33" text-anchor="middle" style="font-family: 'Open Sans', verdana, arial, sans-serif; font-size: 6px; fill: rgb(42, 63, 95); fill-opacity: 1; white-space: pre;">United Health Group</text></g><g class="textpoint" transform="translate(0,-10)"><text x="27.4" y="47.61" text-anchor="middle" style="font-family: 'Open Sans', verdana, arial, sans-serif; font-size: 6px; fill: rgb(42, 63, 95); fill-opacity: 1; white-space: pre;">Walgreens Boots Alliance</text></g></g></g><g class="trace scatter trace631468" style="stroke-miterlimit: 2; opacity: 1;"><g class="fills"/><g class="errorbars"/><g class="lines"><path class="js-line" d="M139.89,161.5L139.89,8.5" style="vector-effect: non-scaling-stroke; fill: none; stroke: rgb(128, 128, 128); stroke-opacity: 1; stroke-width: 5px; opacity: 1; stroke-dasharray: 15px, 15px;"/></g><g class="points"/><g class="text"/></g><g class="trace scatter tracef3f241" style="stroke-miterlimit: 2; opacity: 1;"><g class="fills"/><g class="errorbars"/><g class="lines"><path class="js-line" d="M2.26,111.22L395.74,111.22" style="vector-effect: non-scaling-stroke; fill: none; stroke: rgb(128, 128, 128); stroke-opacity: 1; stroke-width: 5px; opacity: 1; stroke-dasharray: 15px, 15px;"/></g><g class="points"/><g class="text"/></g></g></g><g class="overplot"/><path class="xlines-above crisp" d="M0,0" style="fill: none;"/><path class="ylines-above crisp" d="M0,0" style="fill: none;"/><g class="overlines-above"/><g class="xaxislayer-above"><g class="xtick"><text text-anchor="middle" x="0" y="259.5" transform="translate(79.2,0)" style="font-family: 'Open Sans', verdana, arial, sans-serif; font-size: 4.5px; fill: rgb(42, 63, 95); fill-opacity: 1; white-space: pre; opacity: 1;">2</text></g><g class="xtick"><text text-anchor="middle" x="-1.5" y="264" style="font-family: 'Open Sans', verdana, arial, sans-serif; font-size: 6px; fill: rgb(42, 63, 95); fill-opacity: 1; white-space: pre; opacity: 1;" transform="translate(149.32999999999998,0)">1M</text></g><g class="xtick"><text text-anchor="middle" x="0" y="259.5" style="font-family: 'Open Sans', verdana, arial, sans-serif; font-size: 4.5px; fill: rgb(42, 63, 95); fill-opacity: 1; white-space: pre; opacity: 1;" transform="translate(159.99,0)">9</text></g><g class="xtick"><text text-anchor="middle" x="0" y="259.5" style="font-family: 'Open Sans', verdana, arial, sans-serif; font-size: 4.5px; fill: rgb(42, 63, 95); fill-opacity: 1; white-space: pre; opacity: 1;" transform="translate(171.9,0)">8</text></g><g class="xtick"><text text-anchor="middle" x="0" y="259.5" style="font-family: 'Open Sans', verdana, arial, sans-serif; font-size: 4.5px; fill: rgb(42, 63, 95); fill-opacity: 1; white-space: pre; opacity: 1;" transform="translate(185.41,0)">7</text></g><g class="xtick"><text text-anchor="middle" x="0" y="259.5" style="font-family: 'Open Sans', verdana, arial, sans-serif; font-size: 4.5px; fill: rgb(42, 63, 95); fill-opacity: 1; white-space: pre; opacity: 1;" transform="translate(201.01,0)">6</text></g><g class="xtick"><text text-anchor="middle" x="0" y="259.5" style="font-family: 'Open Sans', verdana, arial, sans-serif; font-size: 4.5px; fill: rgb(42, 63, 95); fill-opacity: 1; white-space: pre; opacity: 1;" transform="translate(219.45,0)">5</text></g><g class="xtick"><text text-anchor="middle" x="0" y="259.5" style="font-family: 'Open Sans', verdana, arial, sans-serif; font-size: 4.5px; fill: rgb(42, 63, 95); fill-opacity: 1; white-space: pre; opacity: 1;" transform="translate(242.03,0)">4</text></g><g class="xtick"><text text-anchor="middle" x="0" y="259.5" style="font-family: 'Open Sans', verdana, arial, sans-serif; font-size: 4.5px; fill: rgb(42, 63, 95); fill-opacity: 1; white-space: pre; opacity: 1;" transform="translate(271.14,0)">3</text></g><g class="xtick"><text text-anchor="middle" x="0" y="259.5" style="font-family: 'Open Sans', verdana, arial, sans-serif; font-size: 4.5px; fill: rgb(42, 63, 95); fill-opacity: 1; white-space: pre; opacity: 1;" transform="translate(312.16,0)">2</text></g><g class="xtick"><text text-anchor="middle" x="-1.5" y="264" style="font-family: 'Open Sans', verdana, arial, sans-serif; font-size: 6px; fill: rgb(42, 63, 95); fill-opacity: 1; white-space: pre; opacity: 1;" transform="translate(382.29,0)">100k</text></g><g class="xtick"><text text-anchor="middle" x="0" y="259.5" style="font-family: 'Open Sans', verdana, arial, sans-serif; font-size: 4.5px; fill: rgb(42, 63, 95); fill-opacity: 1; white-space: pre; opacity: 1;" transform="translate(392.95,0)">9</text></g><g class="xtick"><text text-anchor="middle" x="0" y="259.5" style="font-family: 'Open Sans', verdana, arial, sans-serif; font-size: 4.5px; fill: rgb(42, 63, 95); fill-opacity: 1; white-space: pre; opacity: 1;" transform="translate(404.87,0)">8</text></g><g class="xtick"><text text-anchor="middle" x="0" y="259.5" style="font-family: 'Open Sans', verdana, arial, sans-serif; font-size: 4.5px; fill: rgb(42, 63, 95); fill-opacity: 1; white-space: pre; opacity: 1;" transform="translate(418.37,0)">7</text></g><g class="xtick"><text text-anchor="middle" x="0" y="259.5" style="font-family: 'Open Sans', verdana, arial, sans-serif; font-size: 4.5px; fill: rgb(42, 63, 95); fill-opacity: 1; white-space: pre; opacity: 1;" transform="translate(433.97,0)">6</text></g></g><g class="yaxislayer-above"><g class="ytick"><text text-anchor="end" x="47" y="2.0999999999999996" transform="translate(0,243.56)" style="font-family: 'Open Sans', verdana, arial, sans-serif; font-size: 6px; fill: rgb(42, 63, 95); fill-opacity: 1; white-space: pre; opacity: 1;">10B</text></g><g class="ytick"><text text-anchor="end" x="47" y="1.575" style="font-family: 'Open Sans', verdana, arial, sans-serif; font-size: 4.5px; fill: rgb(42, 63, 95); fill-opacity: 1; white-space: pre; opacity: 1;" transform="translate(0,212.85)">2</text></g><g class="ytick"><text text-anchor="end" x="47" y="1.575" style="font-family: 'Open Sans', verdana, arial, sans-serif; font-size: 4.5px; fill: rgb(42, 63, 95); fill-opacity: 1; white-space: pre; opacity: 1;" transform="translate(0,172.24)">5</text></g><g class="ytick"><text text-anchor="end" x="47" y="2.0999999999999996" style="font-family: 'Open Sans', verdana, arial, sans-serif; font-size: 6px; fill: rgb(42, 63, 95); fill-opacity: 1; white-space: pre; opacity: 1;" transform="translate(0,141.53)">100B</text></g><g class="ytick"><text text-anchor="end" x="47" y="1.575" style="font-family: 'Open Sans', verdana, arial, sans-serif; font-size: 4.5px; fill: rgb(42, 63, 95); fill-opacity: 1; white-space: pre; opacity: 1;" transform="translate(0,110.81)">2</text></g></g><g class="overaxes-above"/></g></g><g class="polarlayer"/><g class="ternarylayer"/><g class="geolayer"/><g class="funnelarealayer"/><g class="pielayer"/><g class="iciclelayer"/><g class="treemaplayer"/><g class="sunburstlayer"/><g class="glimages"/><defs id="topdefs-dcdf69"><g class="clips"/></defs><g class="layer-above"><g class="imagelayer"/><g class="shapelayer"/></g><g class="infolayer"><g class="g-gtitle"><text class="gtitle" x="250" y="40" text-anchor="middle" dy="0em" style="font-family: Arial; font-size: 12px; fill: rgb(42, 63, 95); opacity: 1; font-weight: normal; white-space: pre;"><tspan class="line" dy="0em" x="250" y="40"><tspan style="font-weight:bold">GHG Emissions vs. Revenue</tspan></tspan><tspan class="line" dy="1.3em" x="250" y="40">Sector: Healthcare</tspan></text></g><g class="g-xtitle"><text class="xtitle" x="251" y="285.4" text-anchor="middle" style="font-family: 'Open Sans', verdana, arial, sans-serif; font-size: 7px; fill: rgb(42, 63, 95); opacity: 1; font-weight: normal; white-space: pre;"><tspan style="font-style:italic">high</tspan>----------<tspan style="font-weight:bold">Scope1+2 Emissions</tspan>----------<tspan style="font-style:italic">low</tspan></text></g><g class="g-ytitle"><text class="ytitle" transform="rotate(-90,11.537500000000001,165)" x="11.537500000000001" y="165" text-anchor="middle" style="font-family: 'Open Sans', verdana, arial, sans-serif; font-size: 7px; fill: rgb(42, 63, 95); opacity: 1; font-weight: normal; white-space: pre;">Revenue</text></g></g></svg>