<svg class="main-svg" xmlns="http://www.w3.org/2000/svg" xmlns:xlink="http://www.w3.org/1999/xlink" width="2100" height="900" style="" viewBox="0 0 700 300"><rect x="0" y="0" width="700" height="300" style="fill: rgb(255, 255, 255); fill-opacity: 1;"/><defs id="defs-b2d176"><g class="clips"><clipPath id="clipb2d176xyplot" class="plotclip"><rect width="398" height="120"/></clipPath><clipPath class="axesclip" id="clipb2d176x"><rect x="80" y="0" width="398" height="300"/></clipPath><clipPath class="axesclip" id="clipb2d176y"><rect x="0" y="100" width="700" height="120"/></clipPath><clipPath class="axesclip" id="clipb2d176xy"><rect x="80" y="100" width="398" height="120"/></clipPath></g><g class="gradients"/></defs><g class="bglayer"><rect class="bg" x="80" y="100" width="398" height="120" style="fill: rgb(250, 235, 215); fill-opacity: 1; stroke-width: 0;"/></g><g class="layer-below"><g class="imagelayer"/><g class="shapelayer"/></g><g class="cartesianlayer"><g class="subplot xy"><g class="layer-subplot"><g class="shapelayer"/><g class="imagelayer"/></g><g class="gridlayer"><g class="x"><path class="xgrid crisp" transform="translate(108.52,0)" d="M0,100v120" style="stroke: rgb(255, 255, 255); stroke-opacity: 1; stroke-width: 1px;"/><path class="xgrid crisp" transform="translate(188.20999999999998,0)" d="M0,100v120" style="stroke: rgb(255, 255, 255); stroke-opacity: 1; stroke-width: 1px;"/><path class="xgrid crisp" transform="translate(267.90999999999997,0)" d="M0,100v120" style="stroke: rgb(255, 255, 255); stroke-opacity: 1; stroke-width: 1px;"/><path class="xgrid crisp" transform="translate(347.61,0)" d="M0,100v120" style="stroke: rgb(255, 255, 255); stroke-opacity: 1; stroke-width: 1px;"/><path class="xgrid crisp" transform="translate(427.3,0)" d="M0,100v120" style="stroke: rgb(255, 255, 255); stroke-opacity: 1; stroke-width: 1px;"/></g><g class="y"><path class="ygrid crisp" transform="translate(0,210.73000000000002)" d="M80,0h398" style="stroke: rgb(255, 255, 255); stroke-opacity: 1; stroke-width: 1px;"/><path class="ygrid crisp" transform="translate(0,196.05)" d="M80,0h398" style="stroke: rgb(255, 255, 255); stroke-opacity: 1; stroke-width: 1px;"/><path class="ygrid crisp" transform="translate(0,181.38)" d="M80,0h398" style="stroke: rgb(255, 255, 255); stroke-opacity: 1; stroke-width: 1px;"/><path class="ygrid crisp" transform="translate(0,161.98)" d="M80,0h398" style="stroke: rgb(255, 255, 255); stroke-opacity: 1; stroke-width: 1px;"/><path class="ygrid crisp" transform="translate(0,147.31)" d="M80,0h398" style="stroke: rgb(255, 255, 255); stroke-opacity: 1; stroke-width: 1px;"/><path class="ygrid crisp" transform="translate(0,132.64)" d="M80,0h398" style="stroke: rgb(255, 255, 255); stroke-opacity: 1; stroke-width: 1px;"/><path class="ygrid crisp" transform="translate(0,113.24)" d="M80,0h398" style="stroke: rgb(255, 255, 255); stroke-opacity: 1; stroke-width: 1px;"/></g></g><g class="zerolinelayer"/><path class="xlines-below"/><path class="ylines-below"/><g class="overlines-below"/><g class="xaxislayer-below"/><g class="yaxislayer-below"/><g class="overaxes-below"/><g class="plot" transform="translate(80,100)" clip-path="url('#clipb2d176xyplot')"><g class="scatterlayer mlayer"><g class="trace scatter trace4f2a08" style="stroke-miterlimit: 2; opacity: 1;"><g class="fills"/><g class="errorbars"/><g class="lines"><path class="js-line" d="M191.6,107.75L191.6,12.25" style="vector-effect: non-scaling-stroke; fill: none; stroke: rgb(128, 128, 128); stroke-opacity: 1; stroke-width: 2px; opacity: 1; stroke-dasharray: 9px, 9px;"/></g><g class="points"/><g class="text"/></g><g class="trace scatter tracec0a617" style="stroke-miterlimit: 2; opacity: 1;"><g class="fills"/><g class="errorbars"/><g class="lines"><path class="js-line" d="M8358,67.01L26.15,67.01" style="vector-effect: non-scaling-stroke; fill: none; stroke: rgb(128, 128, 128); stroke-opacity: 1; stroke-width: 2px; opacity: 1; stroke-dasharray: 9px, 9px;"/></g><g class="points"/><g class="text"/></g><g class="trace scatter tracea8cf71" style="stroke-miterlimit: 2; opacity: 1;"><g class="fills"/><g class="errorbars"/><g class="lines"/><g class="points"><path class="point" transform="translate(129.73,71.34)" d="M5,0A5,5 0 1,1 0,-5A5,5 0 0,1 5,0Z" style="opacity: 1; stroke-width: 0px; fill: rgb(0, 204, 150); fill-opacity: 1;"/><path class="point" transform="translate(177.63,52.97)" d="M5,0A5,5 0 1,1 0,-5A5,5 0 0,1 5,0Z" style="opacity: 1; stroke-width: 0px; fill: rgb(0, 204, 150); fill-opacity: 1;"/><path class="point" transform="translate(168.07,60.43)" d="M5,0A5,5 0 1,1 0,-5A5,5 0 0,1 5,0Z" style="opacity: 1; stroke-width: 0px; fill: rgb(0, 204, 150); fill-opacity: 1;"/><path class="point" transform="translate(192.98,83.18)" d="M5,0A5,5 0 1,1 0,-5A5,5 0 0,1 5,0Z" style="opacity: 1; stroke-width: 0px; fill: rgb(0, 204, 150); fill-opacity: 1;"/><path class="point" transform="translate(91.09,54.96)" d="M5,0A5,5 0 1,1 0,-5A5,5 0 0,1 5,0Z" style="opacity: 1; stroke-width: 0px; fill: rgb(0, 204, 150); fill-opacity: 1;"/><path class="point" transform="translate(197.31,67.06)" d="M5,0A5,5 0 1,1 0,-5A5,5 0 0,1 5,0Z" style="opacity: 1; stroke-width: 0px; fill: rgb(0, 204, 150); fill-opacity: 1;"/><path class="point" transform="translate(157.75,48.35)" d="M5,0A5,5 0 1,1 0,-5A5,5 0 0,1 5,0Z" style="opacity: 1; stroke-width: 0px; fill: rgb(0, 204, 150); fill-opacity: 1;"/><path class="point" transform="translate(163.5,68.53)" d="M5,0A5,5 0 1,1 0,-5A5,5 0 0,1 5,0Z" style="opacity: 1; stroke-width: 0px; fill: rgb(0, 204, 150); fill-opacity: 1;"/><path class="point" transform="translate(196.89,58.19)" d="M5,0A5,5 0 1,1 0,-5A5,5 0 0,1 5,0Z" style="opacity: 1; stroke-width: 0px; fill: rgb(0, 204, 150); fill-opacity: 1;"/><path class="point" transform="translate(169.01,73.39)" d="M5,0A5,5 0 1,1 0,-5A5,5 0 0,1 5,0Z" style="opacity: 1; stroke-width: 0px; fill: rgb(0, 204, 150); fill-opacity: 1;"/><path class="point" transform="translate(106.81,79.65)" d="M5,0A5,5 0 1,1 0,-5A5,5 0 0,1 5,0Z" style="opacity: 1; stroke-width: 0px; fill: rgb(0, 204, 150); fill-opacity: 1;"/><path class="point" transform="translate(94.29,53.66)" d="M5,0A5,5 0 1,1 0,-5A5,5 0 0,1 5,0Z" style="opacity: 1; stroke-width: 0px; fill: rgb(0, 204, 150); fill-opacity: 1;"/></g><g class="text"/></g><g class="trace scatter tracea0598a" style="stroke-miterlimit: 2; opacity: 1;"><g class="fills"/><g class="errorbars"/><g class="lines"/><g class="points"><path class="point" transform="translate(188.89,71.5)" d="M5,0A5,5 0 1,1 0,-5A5,5 0 0,1 5,0Z" style="opacity: 1; stroke-width: 0px; fill: rgb(171, 99, 250); fill-opacity: 1;"/><path class="point" transform="translate(207.72,70.61)" d="M5,0A5,5 0 1,1 0,-5A5,5 0 0,1 5,0Z" style="opacity: 1; stroke-width: 0px; fill: rgb(171, 99, 250); fill-opacity: 1;"/><path class="point" transform="translate(230.01,78.06)" d="M5,0A5,5 0 1,1 0,-5A5,5 0 0,1 5,0Z" style="opacity: 1; stroke-width: 0px; fill: rgb(171, 99, 250); fill-opacity: 1;"/><path class="point" transform="translate(281.4,89.7)" d="M5,0A5,5 0 1,1 0,-5A5,5 0 0,1 5,0Z" style="opacity: 1; stroke-width: 0px; fill: rgb(171, 99, 250); fill-opacity: 1;"/><path class="point" transform="translate(182.13,27.35)" d="M5,0A5,5 0 1,1 0,-5A5,5 0 0,1 5,0Z" style="opacity: 1; stroke-width: 0px; fill: rgb(171, 99, 250); fill-opacity: 1;"/><path class="point" transform="translate(192.97,79.06)" d="M5,0A5,5 0 1,1 0,-5A5,5 0 0,1 5,0Z" style="opacity: 1; stroke-width: 0px; fill: rgb(171, 99, 250); fill-opacity: 1;"/><path class="point" transform="translate(278.15,78.94)" d="M5,0A5,5 0 1,1 0,-5A5,5 0 0,1 5,0Z" style="opacity: 1; stroke-width: 0px; fill: rgb(171, 99, 250); fill-opacity: 1;"/><path class="point" transform="translate(190.29,51.5)" d="M5,0A5,5 0 1,1 0,-5A5,5 0 0,1 5,0Z" style="opacity: 1; stroke-width: 0px; fill: rgb(171, 99, 250); fill-opacity: 1;"/><path class="point" transform="translate(230.9,72.41)" d="M5,0A5,5 0 1,1 0,-5A5,5 0 0,1 5,0Z" style="opacity: 1; stroke-width: 0px; fill: rgb(171, 99, 250); fill-opacity: 1;"/><path class="point" transform="translate(185.51,65.53)" d="M5,0A5,5 0 1,1 0,-5A5,5 0 0,1 5,0Z" style="opacity: 1; stroke-width: 0px; fill: rgb(171, 99, 250); fill-opacity: 1;"/><path class="point" transform="translate(177.04,61.26)" d="M5,0A5,5 0 1,1 0,-5A5,5 0 0,1 5,0Z" style="opacity: 1; stroke-width: 0px; fill: rgb(171, 99, 250); fill-opacity: 1;"/><path class="point" transform="translate(249.83,28.59)" d="M5,0A5,5 0 1,1 0,-5A5,5 0 0,1 5,0Z" style="opacity: 1; stroke-width: 0px; fill: rgb(171, 99, 250); fill-opacity: 1;"/><path class="point" transform="translate(163.34,40.66)" d="M5,0A5,5 0 1,1 0,-5A5,5 0 0,1 5,0Z" style="opacity: 1; stroke-width: 0px; fill: rgb(171, 99, 250); fill-opacity: 1;"/></g><g class="text"/></g><g class="trace scatter trace3b5175" style="stroke-miterlimit: 2; opacity: 1;"><g class="fills"/><g class="errorbars"/><g class="lines"/><g class="points"><path class="point" transform="translate(238.24,65.08)" d="M5,0A5,5 0 1,1 0,-5A5,5 0 0,1 5,0Z" style="opacity: 1; stroke-width: 0px; fill: rgb(255, 161, 90); fill-opacity: 1;"/><path class="point" transform="translate(288.08,93.71)" d="M5,0A5,5 0 1,1 0,-5A5,5 0 0,1 5,0Z" style="opacity: 1; stroke-width: 0px; fill: rgb(255, 161, 90); fill-opacity: 1;"/><path class="point" transform="translate(291.22,27.07)" d="M5,0A5,5 0 1,1 0,-5A5,5 0 0,1 5,0Z" style="opacity: 1; stroke-width: 0px; fill: rgb(255, 161, 90); fill-opacity: 1;"/><path class="point" transform="translate(238.99,61.2)" d="M5,0A5,5 0 1,1 0,-5A5,5 0 0,1 5,0Z" style="opacity: 1; stroke-width: 0px; fill: rgb(255, 161, 90); fill-opacity: 1;"/><path class="point" transform="translate(190.15,52.81)" d="M5,0A5,5 0 1,1 0,-5A5,5 0 0,1 5,0Z" style="opacity: 1; stroke-width: 0px; fill: rgb(255, 161, 90); fill-opacity: 1;"/><path class="point" transform="translate(152.42,54.3)" d="M5,0A5,5 0 1,1 0,-5A5,5 0 0,1 5,0Z" style="opacity: 1; stroke-width: 0px; fill: rgb(255, 161, 90); fill-opacity: 1;"/><path class="point" transform="translate(220.61,42.45)" d="M5,0A5,5 0 1,1 0,-5A5,5 0 0,1 5,0Z" style="opacity: 1; stroke-width: 0px; fill: rgb(255, 161, 90); fill-opacity: 1;"/><path class="point" transform="translate(283.72,92.69)" d="M5,0A5,5 0 1,1 0,-5A5,5 0 0,1 5,0Z" style="opacity: 1; stroke-width: 0px; fill: rgb(255, 161, 90); fill-opacity: 1;"/><path class="point" transform="translate(222.74,66.97)" d="M5,0A5,5 0 1,1 0,-5A5,5 0 0,1 5,0Z" style="opacity: 1; stroke-width: 0px; fill: rgb(255, 161, 90); fill-opacity: 1;"/><path class="point" transform="translate(245.51,77.28)" d="M5,0A5,5 0 1,1 0,-5A5,5 0 0,1 5,0Z" style="opacity: 1; stroke-width: 0px; fill: rgb(255, 161, 90); fill-opacity: 1;"/><path class="point" transform="translate(188.61,88.46)" d="M5,0A5,5 0 1,1 0,-5A5,5 0 0,1 5,0Z" style="opacity: 1; stroke-width: 0px; fill: rgb(255, 161, 90); fill-opacity: 1;"/></g><g class="text"/></g><g class="trace scatter traceb7aef8" style="stroke-miterlimit: 2; opacity: 1;"><g class="fills"/><g class="errorbars"/><g class="lines"/><g class="points"><path class="point" transform="translate(263.24,64.37)" d="M5,0A5,5 0 1,1 0,-5A5,5 0 0,1 5,0Z" style="opacity: 1; stroke-width: 0px; fill: rgb(25, 211, 243); fill-opacity: 1;"/><path class="point" transform="translate(312.27,64.91)" d="M5,0A5,5 0 1,1 0,-5A5,5 0 0,1 5,0Z" style="opacity: 1; stroke-width: 0px; fill: rgb(25, 211, 243); fill-opacity: 1;"/><path class="point" transform="translate(264.03,62.09)" d="M5,0A5,5 0 1,1 0,-5A5,5 0 0,1 5,0Z" style="opacity: 1; stroke-width: 0px; fill: rgb(25, 211, 243); fill-opacity: 1;"/><path class="point" transform="translate(275.26,49.25)" d="M5,0A5,5 0 1,1 0,-5A5,5 0 0,1 5,0Z" style="opacity: 1; stroke-width: 0px; fill: rgb(25, 211, 243); fill-opacity: 1;"/><path class="point" transform="translate(367.44,88.13)" d="M5,0A5,5 0 1,1 0,-5A5,5 0 0,1 5,0Z" style="opacity: 1; stroke-width: 0px; fill: rgb(25, 211, 243); fill-opacity: 1;"/><path class="point" transform="translate(348.61,73.81)" d="M5,0A5,5 0 1,1 0,-5A5,5 0 0,1 5,0Z" style="opacity: 1; stroke-width: 0px; fill: rgb(25, 211, 243); fill-opacity: 1;"/><path class="point" transform="translate(204.63,46.59)" d="M5,0A5,5 0 1,1 0,-5A5,5 0 0,1 5,0Z" style="opacity: 1; stroke-width: 0px; fill: rgb(25, 211, 243); fill-opacity: 1;"/><path class="point" transform="translate(320.36,68.62)" d="M5,0A5,5 0 1,1 0,-5A5,5 0 0,1 5,0Z" style="opacity: 1; stroke-width: 0px; fill: rgb(25, 211, 243); fill-opacity: 1;"/><path class="point" transform="translate(203.48,44.24)" d="M5,0A5,5 0 1,1 0,-5A5,5 0 0,1 5,0Z" style="opacity: 1; stroke-width: 0px; fill: rgb(25, 211, 243); fill-opacity: 1;"/><path class="point" transform="translate(371.85,84.97)" d="M5,0A5,5 0 1,1 0,-5A5,5 0 0,1 5,0Z" style="opacity: 1; stroke-width: 0px; fill: rgb(25, 211, 243); fill-opacity: 1;"/><path class="point" transform="translate(336.63,55.49)" d="M5,0A5,5 0 1,1 0,-5A5,5 0 0,1 5,0Z" style="opacity: 1; stroke-width: 0px; fill: rgb(25, 211, 243); fill-opacity: 1;"/><path class="point" transform="translate(242.85,65.97)" d="M5,0A5,5 0 1,1 0,-5A5,5 0 0,1 5,0Z" style="opacity: 1; stroke-width: 0px; fill: rgb(25, 211, 243); fill-opacity: 1;"/><path class="point" transform="translate(287.12,83.88)" d="M5,0A5,5 0 1,1 0,-5A5,5 0 0,1 5,0Z" style="opacity: 1; stroke-width: 0px; fill: rgb(25, 211, 243); fill-opacity: 1;"/><path class="point" transform="translate(238.34,76.01)" d="M5,0A5,5 0 1,1 0,-5A5,5 0 0,1 5,0Z" style="opacity: 1; stroke-width: 0px; fill: rgb(25, 211, 243); fill-opacity: 1;"/><path class="point" transform="translate(285.28,78.42)" d="M5,0A5,5 0 1,1 0,-5A5,5 0 0,1 5,0Z" style="opacity: 1; stroke-width: 0px; fill: rgb(25, 211, 243); fill-opacity: 1;"/><path class="point" transform="translate(268.67,50.74)" d="M5,0A5,5 0 1,1 0,-5A5,5 0 0,1 5,0Z" style="opacity: 1; stroke-width: 0px; fill: rgb(25, 211, 243); fill-opacity: 1;"/></g><g class="text"/></g><g class="trace scatter trace7f1363" style="stroke-miterlimit: 2; opacity: 1;"><g class="fills"/><g class="errorbars"/><g class="lines"/><g class="points"><path class="point" transform="translate(193.09,37.12)" d="M5,0A5,5 0 1,1 0,-5A5,5 0 0,1 5,0Z" style="opacity: 1; stroke-width: 0px; fill: rgb(255, 102, 146); fill-opacity: 1;"/><path class="point" transform="translate(123.02,34.73)" d="M5,0A5,5 0 1,1 0,-5A5,5 0 0,1 5,0Z" style="opacity: 1; stroke-width: 0px; fill: rgb(255, 102, 146); fill-opacity: 1;"/><path class="point" transform="translate(164,45.5)" d="M5,0A5,5 0 1,1 0,-5A5,5 0 0,1 5,0Z" style="opacity: 1; stroke-width: 0px; fill: rgb(255, 102, 146); fill-opacity: 1;"/><path class="point" transform="translate(235.75,54.65)" d="M5,0A5,5 0 1,1 0,-5A5,5 0 0,1 5,0Z" style="opacity: 1; stroke-width: 0px; fill: rgb(255, 102, 146); fill-opacity: 1;"/><path class="point" transform="translate(167.83,54.99)" d="M5,0A5,5 0 1,1 0,-5A5,5 0 0,1 5,0Z" style="opacity: 1; stroke-width: 0px; fill: rgb(255, 102, 146); fill-opacity: 1;"/><path class="point" transform="translate(137.09,41.46)" d="M5,0A5,5 0 1,1 0,-5A5,5 0 0,1 5,0Z" style="opacity: 1; stroke-width: 0px; fill: rgb(255, 102, 146); fill-opacity: 1;"/></g><g class="text"/></g><g class="trace scatter traceeb9609" style="stroke-miterlimit: 2; opacity: 1;"><g class="fills"/><g class="errorbars"/><g class="lines"/><g class="points"><path class="point" transform="translate(229.42,76.35)" d="M5,0A5,5 0 1,1 0,-5A5,5 0 0,1 5,0Z" style="opacity: 1; stroke-width: 0px; fill: rgb(182, 232, 128); fill-opacity: 1;"/><path class="point" transform="translate(128.53,68.21)" d="M5,0A5,5 0 1,1 0,-5A5,5 0 0,1 5,0Z" style="opacity: 1; stroke-width: 0px; fill: rgb(182, 232, 128); fill-opacity: 1;"/><path class="point" transform="translate(213.75,86.51)" d="M5,0A5,5 0 1,1 0,-5A5,5 0 0,1 5,0Z" style="opacity: 1; stroke-width: 0px; fill: rgb(182, 232, 128); fill-opacity: 1;"/><path class="point" transform="translate(155.07,38.35)" d="M5,0A5,5 0 1,1 0,-5A5,5 0 0,1 5,0Z" style="opacity: 1; stroke-width: 0px; fill: rgb(182, 232, 128); fill-opacity: 1;"/><path class="point" transform="translate(175.72,76.68)" d="M5,0A5,5 0 1,1 0,-5A5,5 0 0,1 5,0Z" style="opacity: 1; stroke-width: 0px; fill: rgb(182, 232, 128); fill-opacity: 1;"/><path class="point" transform="translate(168.29,75.93)" d="M5,0A5,5 0 1,1 0,-5A5,5 0 0,1 5,0Z" style="opacity: 1; stroke-width: 0px; fill: rgb(182, 232, 128); fill-opacity: 1;"/><path class="point" transform="translate(132.36,55.74)" d="M5,0A5,5 0 1,1 0,-5A5,5 0 0,1 5,0Z" style="opacity: 1; stroke-width: 0px; fill: rgb(182, 232, 128); fill-opacity: 1;"/><path class="point" transform="translate(208.16,52.08)" d="M5,0A5,5 0 1,1 0,-5A5,5 0 0,1 5,0Z" style="opacity: 1; stroke-width: 0px; fill: rgb(182, 232, 128); fill-opacity: 1;"/><path class="point" transform="translate(139.5,55.58)" d="M5,0A5,5 0 1,1 0,-5A5,5 0 0,1 5,0Z" style="opacity: 1; stroke-width: 0px; fill: rgb(182, 232, 128); fill-opacity: 1;"/><path class="point" transform="translate(159.11,52.54)" d="M5,0A5,5 0 1,1 0,-5A5,5 0 0,1 5,0Z" style="opacity: 1; stroke-width: 0px; fill: rgb(182, 232, 128); fill-opacity: 1;"/><path class="point" transform="translate(88.72,12.25)" d="M5,0A5,5 0 1,1 0,-5A5,5 0 0,1 5,0Z" style="opacity: 1; stroke-width: 0px; fill: rgb(182, 232, 128); fill-opacity: 1;"/></g><g class="text"/></g><g class="trace scatter trace804ae1" style="stroke-miterlimit: 2; opacity: 1;"><g class="fills"/><g class="errorbars"/><g class="lines"/><g class="points"><path class="point" transform="translate(104.11,25.52)" d="M5,0A5,5 0 1,1 0,-5A5,5 0 0,1 5,0Z" style="opacity: 1; stroke-width: 0px; fill: rgb(255, 151, 255); fill-opacity: 1;"/><path class="point" transform="translate(135.7,37.91)" d="M5,0A5,5 0 1,1 0,-5A5,5 0 0,1 5,0Z" style="opacity: 1; stroke-width: 0px; fill: rgb(255, 151, 255); fill-opacity: 1;"/><path class="point" transform="translate(130.11,40.61)" d="M5,0A5,5 0 1,1 0,-5A5,5 0 0,1 5,0Z" style="opacity: 1; stroke-width: 0px; fill: rgb(255, 151, 255); fill-opacity: 1;"/><path class="point" transform="translate(166.49,45.26)" d="M5,0A5,5 0 1,1 0,-5A5,5 0 0,1 5,0Z" style="opacity: 1; stroke-width: 0px; fill: rgb(255, 151, 255); fill-opacity: 1;"/><path class="point" transform="translate(162.09,54.47)" d="M5,0A5,5 0 1,1 0,-5A5,5 0 0,1 5,0Z" style="opacity: 1; stroke-width: 0px; fill: rgb(255, 151, 255); fill-opacity: 1;"/><path class="point" transform="translate(205.64,80.27)" d="M5,0A5,5 0 1,1 0,-5A5,5 0 0,1 5,0Z" style="opacity: 1; stroke-width: 0px; fill: rgb(255, 151, 255); fill-opacity: 1;"/><path class="point" transform="translate(235.1,67.19)" d="M5,0A5,5 0 1,1 0,-5A5,5 0 0,1 5,0Z" style="opacity: 1; stroke-width: 0px; fill: rgb(255, 151, 255); fill-opacity: 1;"/><path class="point" transform="translate(202.14,75.42)" d="M5,0A5,5 0 1,1 0,-5A5,5 0 0,1 5,0Z" style="opacity: 1; stroke-width: 0px; fill: rgb(255, 151, 255); fill-opacity: 1;"/></g><g class="text"/></g><g class="trace scatter trace8f67a2" style="stroke-miterlimit: 2; opacity: 1;"><g class="fills"/><g class="errorbars"/><g class="lines"/><g class="points"><path class="point" transform="translate(159.92,101.92)" d="M5,0A5,5 0 1,1 0,-5A5,5 0 0,1 5,0Z" style="opacity: 1; stroke-width: 0px; fill: rgb(254, 203, 82); fill-opacity: 1;"/><path class="point" transform="translate(233.67,107.75)" d="M5,0A5,5 0 1,1 0,-5A5,5 0 0,1 5,0Z" style="opacity: 1; stroke-width: 0px; fill: rgb(254, 203, 82); fill-opacity: 1;"/></g><g class="text"/></g><g class="trace scatter tracee2f9be" style="stroke-miterlimit: 2; opacity: 1;"><g class="fills"/><g class="errorbars"/><g class="lines"/><g class="points"><path class="point" transform="translate(47.97,39.23)" d="M5,0A5,5 0 1,1 0,-5A5,5 0 0,1 5,0Z" style="opacity: 1; stroke-width: 0px; fill: rgb(99, 110, 250); fill-opacity: 1;"/><path class="point" transform="translate(83.37,68.55)" d="M5,0A5,5 0 1,1 0,-5A5,5 0 0,1 5,0Z" style="opacity: 1; stroke-width: 0px; fill: rgb(99, 110, 250); fill-opacity: 1;"/><path class="point" transform="translate(71.54,80.12)" d="M5,0A5,5 0 1,1 0,-5A5,5 0 0,1 5,0Z" style="opacity: 1; stroke-width: 0px; fill: rgb(99, 110, 250); fill-opacity: 1;"/></g><g class="text"/></g><g class="trace scatter trace5c3092" style="stroke-miterlimit: 2; opacity: 1;"><g class="fills"/><g class="errorbars"/><g class="lines"/><g class="points"><path class="point" transform="translate(66.22,65.2)" d="M5,0A5,5 0 1,1 0,-5A5,5 0 0,1 5,0Z" style="opacity: 1; stroke-width: 0px; fill: rgb(239, 85, 59); fill-opacity: 1;"/><path class="point" transform="translate(129.67,79.78)" d="M5,0A5,5 0 1,1 0,-5A5,5 0 0,1 5,0Z" style="opacity: 1; stroke-width: 0px; fill: rgb(239, 85, 59); fill-opacity: 1;"/></g><g class="text"/></g><g class="trace scatter trace369108" style="stroke-miterlimit: 2; opacity: 1;"><g class="fills"/><g class="errorbars"/><g class="lines"/><g class="points"><path class="point" transform="translate(27.12,76.59)" d="M5,0A5,5 0 1,1 0,-5A5,5 0 0,1 5,0Z" style="opacity: 1; stroke-width: 0px; fill: rgb(0, 204, 150); fill-opacity: 1;"/><path class="point" transform="translate(95.81,69.88)" d="M5,0A5,5 0 1,1 0,-5A5,5 0 0,1 5,0Z" style="opacity: 1; stroke-width: 0px; fill: rgb(0, 204, 150); fill-opacity: 1;"/><path class="point" transform="translate(26.15,82.24)" d="M5,0A5,5 0 1,1 0,-5A5,5 0 0,1 5,0Z" style="opacity: 1; stroke-width: 0px; fill: rgb(0, 204, 150); fill-opacity: 1;"/><path class="point" transform="translate(32.85,79.93)" d="M5,0A5,5 0 1,1 0,-5A5,5 0 0,1 5,0Z" style="opacity: 1; stroke-width: 0px; fill: rgb(0, 204, 150); fill-opacity: 1;"/></g><g class="text"/></g></g></g><g class="overplot"/><path class="xlines-above crisp" d="M0,0" style="fill: none;"/><path class="ylines-above crisp" d="M0,0" style="fill: none;"/><g class="overlines-above"/><g class="xaxislayer-above"><g class="xtick"><text text-anchor="middle" x="0" y="233" transform="translate(108.52,0)" style="font-family: 'Open Sans', verdana, arial, sans-serif; font-size: 12px; fill: rgb(42, 63, 95); fill-opacity: 1; white-space: pre;">100M</text></g><g class="xtick"><text text-anchor="middle" x="0" y="233" transform="translate(188.20999999999998,0)" style="font-family: 'Open Sans', verdana, arial, sans-serif; font-size: 12px; fill: rgb(42, 63, 95); fill-opacity: 1; white-space: pre;">10M</text></g><g class="xtick"><text text-anchor="middle" x="0" y="233" transform="translate(267.90999999999997,0)" style="font-family: 'Open Sans', verdana, arial, sans-serif; font-size: 12px; fill: rgb(42, 63, 95); fill-opacity: 1; white-space: pre;">1M</text></g><g class="xtick"><text text-anchor="middle" x="0" y="233" transform="translate(347.61,0)" style="font-family: 'Open Sans', verdana, arial, sans-serif; font-size: 12px; fill: rgb(42, 63, 95); fill-opacity: 1; white-space: pre;">100k</text></g><g class="xtick"><text text-anchor="middle" x="0" y="233" transform="translate(427.3,0)" style="font-family: 'Open Sans', verdana, arial, sans-serif; font-size: 12px; fill: rgb(42, 63, 95); fill-opacity: 1; white-space: pre;">10k</text></g></g><g class="yaxislayer-above"><g class="ytick"><text text-anchor="end" x="79" y="3.15" transform="translate(0,210.73000000000002)" style="font-family: 'Open Sans', verdana, arial, sans-serif; font-size: 9px; fill: rgb(42, 63, 95); fill-opacity: 1; white-space: pre;">5</text></g><g class="ytick"><text text-anchor="end" x="79" y="4.199999999999999" transform="translate(0,196.05)" style="font-family: 'Open Sans', verdana, arial, sans-serif; font-size: 12px; fill: rgb(42, 63, 95); fill-opacity: 1; white-space: pre;">10B</text></g><g class="ytick"><text text-anchor="end" x="79" y="3.15" transform="translate(0,181.38)" style="font-family: 'Open Sans', verdana, arial, sans-serif; font-size: 9px; fill: rgb(42, 63, 95); fill-opacity: 1; white-space: pre;">2</text></g><g class="ytick"><text text-anchor="end" x="79" y="3.15" transform="translate(0,161.98)" style="font-family: 'Open Sans', verdana, arial, sans-serif; font-size: 9px; fill: rgb(42, 63, 95); fill-opacity: 1; white-space: pre;">5</text></g><g class="ytick"><text text-anchor="end" x="79" y="4.199999999999999" transform="translate(0,147.31)" style="font-family: 'Open Sans', verdana, arial, sans-serif; font-size: 12px; fill: rgb(42, 63, 95); fill-opacity: 1; white-space: pre;">100B</text></g><g class="ytick"><text text-anchor="end" x="79" y="3.15" transform="translate(0,132.64)" style="font-family: 'Open Sans', verdana, arial, sans-serif; font-size: 9px; fill: rgb(42, 63, 95); fill-opacity: 1; white-space: pre;">2</text></g><g class="ytick"><text text-anchor="end" x="79" y="3.15" transform="translate(0,113.24)" style="font-family: 'Open Sans', verdana, arial, sans-serif; font-size: 9px; fill: rgb(42, 63, 95); fill-opacity: 1; white-space: pre;">5</text></g></g><g class="overaxes-above"/></g></g><g class="polarlayer"/><g class="ternarylayer"/><g class="geolayer"/><g class="funnelarealayer"/><g class="pielayer"/><g class="treemaplayer"/><g class="sunburstlayer"/><g class="glimages"/><defs id="topdefs-b2d176"><g class="clips"/><clipPath id="legendb2d176"><rect width="195" height="120" x="0" y="0"/></clipPath></defs><g class="layer-above"><g class="imagelayer"/><g class="shapelayer"/></g><g class="infolayer"><g class="legend" pointer-events="all" transform="translate(485.96,100)"><rect class="bg" shape-rendering="crispEdges" style="stroke: rgb(68, 68, 68); stroke-opacity: 1; fill: rgb(255, 255, 255); fill-opacity: 1; stroke-width: 0px;" width="195" height="120" x="0" y="0"/><g class="scrollbox" transform="" clip-path="url('#legendb2d176')"><g class="groups"><g class="traces" transform="translate(0,14.5)" style="opacity: 1;"><text class="legendtext" text-anchor="start" x="40" y="4.680000000000001" style="font-family: 'Open Sans', verdana, arial, sans-serif; font-size: 12px; fill: rgb(42, 63, 95); fill-opacity: 1; white-space: pre;">Industrials</text><g class="layers" style="opacity: 1;"><g class="legendfill"/><g class="legendlines"/><g class="legendsymbols"><g class="legendpoints"><path class="scatterpts" transform="translate(20,0)" d="M5,0A5,5 0 1,1 0,-5A5,5 0 0,1 5,0Z" style="opacity: 1; stroke-width: 0px; fill: rgb(0, 204, 150); fill-opacity: 1;"/></g></g></g><rect class="legendtoggle" x="0" y="-9.5" width="189.34375" height="19" style="fill: rgb(0, 0, 0); fill-opacity: 0;"/></g><g class="traces" transform="translate(0,33.5)" style="opacity: 1;"><text class="legendtext" text-anchor="start" x="40" y="4.680000000000001" style="font-family: 'Open Sans', verdana, arial, sans-serif; font-size: 12px; fill: rgb(42, 63, 95); fill-opacity: 1; white-space: pre;">Healthcare</text><g class="layers" style="opacity: 1;"><g class="legendfill"/><g class="legendlines"/><g class="legendsymbols"><g class="legendpoints"><path class="scatterpts" transform="translate(20,0)" d="M5,0A5,5 0 1,1 0,-5A5,5 0 0,1 5,0Z" style="opacity: 1; stroke-width: 0px; fill: rgb(171, 99, 250); fill-opacity: 1;"/></g></g></g><rect class="legendtoggle" x="0" y="-9.5" width="189.34375" height="19" style="fill: rgb(0, 0, 0); fill-opacity: 0;"/></g><g class="traces" transform="translate(0,52.5)" style="opacity: 1;"><text class="legendtext" text-anchor="start" x="40" y="4.680000000000001" style="font-family: 'Open Sans', verdana, arial, sans-serif; font-size: 12px; fill: rgb(42, 63, 95); fill-opacity: 1; white-space: pre;">Technology</text><g class="layers" style="opacity: 1;"><g class="legendfill"/><g class="legendlines"/><g class="legendsymbols"><g class="legendpoints"><path class="scatterpts" transform="translate(20,0)" d="M5,0A5,5 0 1,1 0,-5A5,5 0 0,1 5,0Z" style="opacity: 1; stroke-width: 0px; fill: rgb(255, 161, 90); fill-opacity: 1;"/></g></g></g><rect class="legendtoggle" x="0" y="-9.5" width="189.34375" height="19" style="fill: rgb(0, 0, 0); fill-opacity: 0;"/></g><g class="traces" transform="translate(0,71.5)" style="opacity: 1;"><text class="legendtext" text-anchor="start" x="40" y="4.680000000000001" style="font-family: 'Open Sans', verdana, arial, sans-serif; font-size: 12px; fill: rgb(42, 63, 95); fill-opacity: 1; white-space: pre;">Financial Services</text><g class="layers" style="opacity: 1;"><g class="legendfill"/><g class="legendlines"/><g class="legendsymbols"><g class="legendpoints"><path class="scatterpts" transform="translate(20,0)" d="M5,0A5,5 0 1,1 0,-5A5,5 0 0,1 5,0Z" style="opacity: 1; stroke-width: 0px; fill: rgb(25, 211, 243); fill-opacity: 1;"/></g></g></g><rect class="legendtoggle" x="0" y="-9.5" width="189.34375" height="19" style="fill: rgb(0, 0, 0); fill-opacity: 0;"/></g><g class="traces" transform="translate(0,90.5)" style="opacity: 1;"><text class="legendtext" text-anchor="start" x="40" y="4.680000000000001" style="font-family: 'Open Sans', verdana, arial, sans-serif; font-size: 12px; fill: rgb(42, 63, 95); fill-opacity: 1; white-space: pre;">Communication Services</text><g class="layers" style="opacity: 1;"><g class="legendfill"/><g class="legendlines"/><g class="legendsymbols"><g class="legendpoints"><path class="scatterpts" transform="translate(20,0)" d="M5,0A5,5 0 1,1 0,-5A5,5 0 0,1 5,0Z" style="opacity: 1; stroke-width: 0px; fill: rgb(255, 102, 146); fill-opacity: 1;"/></g></g></g><rect class="legendtoggle" x="0" y="-9.5" width="189.34375" height="19" style="fill: rgb(0, 0, 0); fill-opacity: 0;"/></g><g class="traces" transform="translate(0,109.5)" style="opacity: 1;"><text class="legendtext" text-anchor="start" x="40" y="4.680000000000001" style="font-family: 'Open Sans', verdana, arial, sans-serif; font-size: 12px; fill: rgb(42, 63, 95); fill-opacity: 1; white-space: pre;">Consumer Staples</text><g class="layers" style="opacity: 1;"><g class="legendfill"/><g class="legendlines"/><g class="legendsymbols"><g class="legendpoints"><path class="scatterpts" transform="translate(20,0)" d="M5,0A5,5 0 1,1 0,-5A5,5 0 0,1 5,0Z" style="opacity: 1; stroke-width: 0px; fill: rgb(182, 232, 128); fill-opacity: 1;"/></g></g></g><rect class="legendtoggle" x="0" y="-9.5" width="189.34375" height="19" style="fill: rgb(0, 0, 0); fill-opacity: 0;"/></g><g class="traces" transform="translate(0,128.5)" style="opacity: 1;"><text class="legendtext" text-anchor="start" x="40" y="4.680000000000001" style="font-family: 'Open Sans', verdana, arial, sans-serif; font-size: 12px; fill: rgb(42, 63, 95); fill-opacity: 1; white-space: pre;">Consumer Discretionary</text><g class="layers" style="opacity: 1;"><g class="legendfill"/><g class="legendlines"/><g class="legendsymbols"><g class="legendpoints"><path class="scatterpts" transform="translate(20,0)" d="M5,0A5,5 0 1,1 0,-5A5,5 0 0,1 5,0Z" style="opacity: 1; stroke-width: 0px; fill: rgb(255, 151, 255); fill-opacity: 1;"/></g></g></g><rect class="legendtoggle" x="0" y="-9.5" width="189.34375" height="19" style="fill: rgb(0, 0, 0); fill-opacity: 0;"/></g><g class="traces" transform="translate(0,147.5)" style="opacity: 1;"><text class="legendtext" text-anchor="start" x="40" y="4.680000000000001" style="font-family: 'Open Sans', verdana, arial, sans-serif; font-size: 12px; fill: rgb(42, 63, 95); fill-opacity: 1; white-space: pre;">Real Estate</text><g class="layers" style="opacity: 1;"><g class="legendfill"/><g class="legendlines"/><g class="legendsymbols"><g class="legendpoints"><path class="scatterpts" transform="translate(20,0)" d="M5,0A5,5 0 1,1 0,-5A5,5 0 0,1 5,0Z" style="opacity: 1; stroke-width: 0px; fill: rgb(254, 203, 82); fill-opacity: 1;"/></g></g></g><rect class="legendtoggle" x="0" y="-9.5" width="189.34375" height="19" style="fill: rgb(0, 0, 0); fill-opacity: 0;"/></g><g class="traces" transform="translate(0,166.5)" style="opacity: 1;"><text class="legendtext" text-anchor="start" x="40" y="4.680000000000001" style="font-family: 'Open Sans', verdana, arial, sans-serif; font-size: 12px; fill: rgb(42, 63, 95); fill-opacity: 1; white-space: pre;">Energy</text><g class="layers" style="opacity: 1;"><g class="legendfill"/><g class="legendlines"/><g class="legendsymbols"><g class="legendpoints"><path class="scatterpts" transform="translate(20,0)" d="M5,0A5,5 0 1,1 0,-5A5,5 0 0,1 5,0Z" style="opacity: 1; stroke-width: 0px; fill: rgb(99, 110, 250); fill-opacity: 1;"/></g></g></g><rect class="legendtoggle" x="0" y="-9.5" width="189.34375" height="19" style="fill: rgb(0, 0, 0); fill-opacity: 0;"/></g><g class="traces" transform="translate(0,185.5)" style="opacity: 1;"><text class="legendtext" text-anchor="start" x="40" y="4.680000000000001" style="font-family: 'Open Sans', verdana, arial, sans-serif; font-size: 12px; fill: rgb(42, 63, 95); fill-opacity: 1; white-space: pre;">Materials</text><g class="layers" style="opacity: 1;"><g class="legendfill"/><g class="legendlines"/><g class="legendsymbols"><g class="legendpoints"><path class="scatterpts" transform="translate(20,0)" d="M5,0A5,5 0 1,1 0,-5A5,5 0 0,1 5,0Z" style="opacity: 1; stroke-width: 0px; fill: rgb(239, 85, 59); fill-opacity: 1;"/></g></g></g><rect class="legendtoggle" x="0" y="-9.5" width="189.34375" height="19" style="fill: rgb(0, 0, 0); fill-opacity: 0;"/></g><g class="traces" transform="translate(0,204.5)" style="opacity: 1;"><text class="legendtext" text-anchor="start" x="40" y="4.680000000000001" style="font-family: 'Open Sans', verdana, arial, sans-serif; font-size: 12px; fill: rgb(42, 63, 95); fill-opacity: 1; white-space: pre;">Utilities</text><g class="layers" style="opacity: 1;"><g class="legendfill"/><g class="legendlines"/><g class="legendsymbols"><g class="legendpoints"><path class="scatterpts" transform="translate(20,0)" d="M5,0A5,5 0 1,1 0,-5A5,5 0 0,1 5,0Z" style="opacity: 1; stroke-width: 0px; fill: rgb(0, 204, 150); fill-opacity: 1;"/></g></g></g><rect class="legendtoggle" x="0" y="-9.5" width="189.34375" height="19" style="fill: rgb(0, 0, 0); fill-opacity: 0;"/></g></g></g><rect class="scrollbar" rx="20" ry="3" width="0" height="0" style="fill: rgb(128, 139, 164); fill-opacity: 1;" x="0" y="0"/></g><g class="g-gtitle"><text class="gtitle" x="350" y="50" text-anchor="middle" dy="0em" style="font-family: Arial; font-size: 25px; fill: rgb(42, 63, 95); opacity: 1; font-weight: normal; white-space: pre;">GHG Emissions Intensity</text></g><g class="g-xtitle"/><g class="g-ytitle"/><g class="annotation" data-index="0" style="opacity: 0.5;"><g class="annotation-text-g" transform="rotate(0,215.8,105.5)"><g class="cursor-pointer" transform="translate(120,88)"><rect class="bg" x="0.5" y="0.5" width="191" height="34" style="stroke-width: 1px; stroke: rgb(0, 0, 0); stroke-opacity: 0; fill: rgb(0, 0, 255); fill-opacity: 1;"/><text class="annotation-text" text-anchor="middle" x="95.59375" y="14" style="font-family: 'Open Sans', verdana, arial, sans-serif; font-size: 12px; fill: rgb(255, 255, 255); fill-opacity: 1; white-space: pre;"><tspan class="line" dy="0em" x="95.59375" y="14"><tspan style="font-weight:bold">Corporate Behemoths</tspan> </tspan><tspan class="line" dy="1.3em" x="95.59375" y="14"> High Revenue, High Emissions</tspan></text></g></g></g><g class="annotation" data-index="1" style="opacity: 0.5;"><g class="annotation-text-g" transform="rotate(0,344.2,105.5)"><g class="cursor-pointer" transform="translate(250,88)"><rect class="bg" x="0.5" y="0.5" width="187" height="34" style="stroke-width: 1px; stroke: rgb(0, 0, 0); stroke-opacity: 0; fill: rgb(0, 0, 255); fill-opacity: 1;"/><text class="annotation-text" text-anchor="middle" x="93.78125" y="14" style="font-family: 'Open Sans', verdana, arial, sans-serif; font-size: 12px; fill: rgb(255, 255, 255); fill-opacity: 1; white-space: pre;"><tspan class="line" dy="0em" x="93.78125" y="14"><tspan style="font-weight:bold">Sustainability Leaders</tspan> </tspan><tspan class="line" dy="1.3em" x="93.78125" y="14"> High Revenue, Low Emissions</tspan></text></g></g></g><g class="annotation" data-index="2" style="opacity: 0.5;"><g class="annotation-text-g" transform="rotate(0,213.8,220.5)"><g class="cursor-pointer" transform="translate(120,203)"><rect class="bg" x="0.5" y="0.5" width="187" height="34" style="stroke-width: 1px; stroke: rgb(0, 0, 0); stroke-opacity: 0; fill: rgb(0, 0, 255); fill-opacity: 1;"/><text class="annotation-text" text-anchor="middle" x="93.78125" y="14" style="font-family: 'Open Sans', verdana, arial, sans-serif; font-size: 12px; fill: rgb(255, 255, 255); fill-opacity: 1; white-space: pre;"><tspan class="line" dy="0em" x="93.78125" y="14"><tspan style="font-weight:bold">Worst Offenders</tspan> </tspan><tspan class="line" dy="1.3em" x="93.78125" y="14"> Low Revenue, High Emissions</tspan></text></g></g></g><g class="annotation" data-index="3" style="opacity: 0.5;"><g class="annotation-text-g" transform="rotate(0,345.7,220.5)"><g class="cursor-pointer" transform="translate(253,203)"><rect class="bg" x="0.5" y="0.5" width="184" height="34" style="stroke-width: 1px; stroke: rgb(0, 0, 0); stroke-opacity: 0; fill: rgb(0, 0, 255); fill-opacity: 1;"/><text class="annotation-text" text-anchor="middle" x="91.984375" y="14" style="font-family: 'Open Sans', verdana, arial, sans-serif; font-size: 12px; fill: rgb(255, 255, 255); fill-opacity: 1; white-space: pre;"><tspan class="line" dy="0em" x="91.984375" y="14"><tspan style="font-weight:bold">Small Players</tspan> </tspan><tspan class="line" dy="1.3em" x="91.984375" y="14"> Low Revenue, Low Emissions</tspan></text></g></g></g></g><g class="menulayer"><g class="updatemenu-container" style="cursor: pointer;"><g class="updatemenu-header-group" pointer-events="all"><g class="updatemenu-button" transform="translate(479,81)"><rect class="updatemenu-item-rect" rx="2" ry="2" shape-rendering="crispEdges" x="0" y="0" width="96" height="33" style="stroke: rgb(190, 200, 217); stroke-opacity: 1; fill: rgb(244, 250, 255); fill-opacity: 1; stroke-width: 1px;"/><text class="updatemenu-item-text" text-anchor="start" data-notex="1" x="12" y="19.5" style="font-family: 'Open Sans', verdana, arial, sans-serif; font-size: 12px; fill: rgb(42, 63, 95); fill-opacity: 1; white-space: pre;">Hide names</text></g><g class="updatemenu-button" transform="translate(577,81)"><rect class="updatemenu-item-rect" rx="2" ry="2" shape-rendering="crispEdges" x="0" y="0" width="102" height="33" style="stroke: rgb(190, 200, 217); stroke-opacity: 1; fill: rgb(255, 255, 255); fill-opacity: 1; stroke-width: 1px;"/><text class="updatemenu-item-text" text-anchor="start" data-notex="1" x="12" y="19.5" style="font-family: 'Open Sans', verdana, arial, sans-serif; font-size: 12px; fill: rgb(42, 63, 95); fill-opacity: 1; white-space: pre;">Show names</text></g></g><g class="updatemenu-dropdown-button-group" updatemenu-active-index="-1" style="pointer-events: all;"><rect class="scrollbox-bg" opacity="0" x="0" y="0" width="0" height="0" style="pointer-events: all;"/></g></g></g></svg>